<svg id="Layer_1" data-name="Layer 1" xmlns="http://www.w3.org/2000/svg" viewBox="0 0 1230.53 747.91"><defs><style>.cls-1{fill:none;stroke:#fff;stroke-miterlimit:10;}</style></defs><path class="cls-1" d="M87.28,13.18v8C97,53,93,84,85.8,115.82c-.24,3.44-.38,6.88-.45,10.32-.44,20.66,1.54,41.37,2.86,61.63q.12,3.38.25,6.71c.1,2.22.21,4.43.34,6.61" transform="translate(-68.88 -12.81)"/><path class="cls-1" d="M105.47,13s0,2.92.18,8C122,55,125,86,104.29,118.4q-.87,5-1.26,10.08c-1.61,20.29,2,41.24,6.62,60.32q1,4.45,2.3,8.86t2.66,8.75" transform="translate(-68.88 -12.81)"/><path class="cls-1" d="M123.55,13.18s0,2.91.15,8.06C139,51,141,86,124.15,115.72a85,85,0,0,0-2,10.65c-2.2,18,.89,36.86,6,53.9,1,2.71,2.17,5.38,3.44,8A115.43,115.43,0,0,0,146,210.44" transform="translate(-68.88 -12.81)"/><path class="cls-1" d="M141.74,13v8q1.84,5.25,3.2,10.44c.92,3.47,1.68,6.91,2.31,10.35C151,59,150,76,147.71,92.81c-.47,3.39-1,6.8-1.62,10.21s-1.28,6.84-2,10.27C141,131,142,150,141.63,167.68a41,41,0,0,0,2,8.85c3.89,11.37,12.26,21.18,20,30.59" transform="translate(-68.88 -12.81)"/><path class="cls-1" d="M160,13.14a23.26,23.26,0,0,1,.17,7.88C152,51,161,84,160,115.13v50.35c-1,13.52,6,25.52,13.46,37" transform="translate(-68.88 -12.81)"/><path class="cls-1" d="M178.17,13C180,31,165,43,163,59c-1.5,9.5.75,18,3.88,26.38,1,2.79,2.18,5.56,3.31,8.36A24.56,24.56,0,0,1,174,107c1.8,18.6,2.16,37.2,2.63,55.7.08,3.08.16,6.16.26,9.24C177,182,180,191,184.1,199.54" transform="translate(-68.88 -12.81)"/><path class="cls-1" d="M196.27,13.18s0,2.91,0,8C197,35,184,44,178,55c-1,4-3,8-2,12a52.81,52.81,0,0,0,2.52,10,94.7,94.7,0,0,0,4,9.46C186,94,190,101,190,108a452.08,452.08,0,0,0,6.27,91.85" transform="translate(-68.88 -12.81)"/><path class="cls-1" d="M214.46,13v8c0,2.55,0,5.65-.11,9.2C214,41,208,51,204,60a28.77,28.77,0,0,0-2.36,8.12,31.73,31.73,0,0,0,0,8c7,20.18,5.41,40.42,5,60.66-.06,3.38-.1,6.75,0,10.13C208,164,206,180,199.32,196.32" transform="translate(-68.88 -12.81)"/><path class="cls-1" d="M232.8,13.18c-.38,3.38-.72,6.77-1,10.15s-.58,6.77-.82,10.16c-1.49,10.32-2.84,20.56-3.48,30.77-.21,3.4-.35,6.8-.39,10.2.8,21.47,1.66,44.06,1.87,66.12,0,3.15,0,6.3,0,9.42,4,19-12,31-18.67,47.24" transform="translate(-68.88 -12.81)"/><path class="cls-1" d="M250.92,13A169.85,169.85,0,0,0,246,35.07q-.85,5.52-1.38,11a137.89,137.89,0,0,0-.91,27.46c.17,3.09.42,6.18.73,9.27,3.14,22,7.36,43.94,7,66.14-.06,3.17-.23,6.36-.54,9.6C251,176,236,185,229,199" transform="translate(-68.88 -12.81)"/><path class="cls-1" d="M269,13.16C270,29,261,41,258,56c-5,24,10,45,11.05,68.44,0,2.35,0,4.69,0,7V148.3c0,2.7,0,5.35,0,7.93C270,171,265,186,262.61,201.45" transform="translate(-68.88 -12.81)"/><path class="cls-1" d="M287.28,13s0,2.23,0,6.2C287,23,288,27,287,31c-13,30-5,58,.12,88.32.08,2.52.1,5,.16,7.53v21.68q0,3.94.07,7.71a51,51,0,0,0,.39,7.32c.29,2.43.72,4.84,1.25,7.25,2,10.19,6,19.19,7.41,29.05" transform="translate(-68.88 -12.81)"/><path class="cls-1" d="M305.53,13.18V25.42c0,2.56,0,5.47,0,8.67C304,63,299,91,302.53,120.12q.06,4.63.21,9.27t.38,9.28q.25,5.31.62,10.62C302,170,321,183,328.08,200" transform="translate(-68.88 -12.81)"/><path class="cls-1" d="M323.73,13V49c0,2.36,0,4.79-.05,7.31C321,70,320,84,318.24,98.06c-.32,3.49-.59,7-.78,10.47A168.19,168.19,0,0,0,318.4,140q.69,5.25,1.82,10.5c3.78,18.5,19.78,30.5,26,49" transform="translate(-68.88 -12.81)"/><path class="cls-1" d="M341.8,13.18V42.32C343,54,341,66,339,78c-4,16-10,31-7,47,1,8,4.25,15.25,6.85,22.57.87,2.44,1.66,4.89,2.28,7.38C343,171,354,184,357.06,199.37" transform="translate(-68.88 -12.81)"/><path class="cls-1" d="M360,13V49c0,2.36-.05,4.8-.1,7.32C360,74,354,91,353,109c0,19,9,36,7,54.53v36" transform="translate(-68.88 -12.81)"/><path class="cls-1" d="M69.84,30.62C92,31,113,31,134.85,30l9.8-.32c9.84-.3,19.74-.51,29.76-.42l9.9.11c13.18.18,26.3.43,39.38.32q4.62-.36,9.26-.55c24.79-1.07,50.16.95,74.62,1.45h69.32" transform="translate(-68.88 -12.81)"/><path class="cls-1" d="M70.26,49.2C95,51,121,49,146,46.76l9.46-.86L165,45c4-1,9,0,14-.29,3.28,0,6.57.06,9.87.12C198.78,45,208.8,45.4,219,46c8,1,15,0,23-1.2,3.07-.19,6.13-.32,9.2-.4A220.74,220.74,0,0,1,298,48c8,2,16,1,23.89,1.19H376.7" transform="translate(-68.88 -12.81)"/><path class="cls-1" d="M71.23,67.87C99,67,129,72,155.92,62.41Q160.5,60.94,165,59c6-3,14,1,21.37.18q4.66.28,9.32.63c18.62,1.39,37.09,3.79,56.26,1.7q4.8,0,9.55.16c19,.71,38.05,3.58,57.6,6.83,3.34.07,6.57.13,9.79.16,16,.18,31.79-.08,47.91-.79" transform="translate(-68.88 -12.81)"/><path class="cls-1" d="M70.29,86.44C98,88,127,91,154.51,82A74.21,74.21,0,0,1,162,81c10.07-.87,20.26.09,30.84.28,3,.15,5.91.26,8.85.36,11.75.38,23.37.44,35.55.62,3-.1,6-.23,9-.42s6-.4,9.06-.68q5.31.06,10.61.45a211.2,211.2,0,0,1,52.3,11,93.32,93.32,0,0,0,9.68.51c15.94,0,31.76-3.66,47.89-6.2" transform="translate(-68.88 -12.81)"/><path class="cls-1" d="M69.67,105.34C93,107,115,106,138.22,104.43c3.56-.1,7.12-.17,10.69-.18a218,218,0,0,1,32.32,2q5.25.93,10.47,1.53c20.84,2.37,41.21.67,62-3.88,3-.17,5.88-.21,8.8-.18,14.58.34,28.86,2.52,42.25,9.34,2.32,1,4.64,2,7,2.84A51,51,0,0,0,319,118c20,5,37-9,56.42-11.72" transform="translate(-68.88 -12.81)"/><path class="cls-1" d="M68.88,123.92c26.12.08,52.12.08,78.36,0l8,0c4.79,0,11.79-1,15.79,3,28,25,58,1,88.46-2.9,2.52-.15,5-.18,7.44-.18,2.85,0,5.67,0,8.46.06,3.37.9,6.72,1.77,10.08,2.6,30.17,7.41,60,11,90.62-2.31" transform="translate(-68.88 -12.81)"/><path class="cls-1" d="M68.92,142.58c27.08.42,53.08.42,79.61,0a26.68,26.68,0,0,1,6.91.08A58.13,58.13,0,0,1,162,144a60.45,60.45,0,0,1,13.26,6.11c2.13,1.22,4.24,2.47,6.37,3.64C196,163,213,157,226.61,151.37c2.64-1,5.27-2.07,7.9-3.05,10.51-3.92,21-7,32.56-5.74h8.46C308,147,340,148,371.66,142.59h5.19" transform="translate(-68.88 -12.81)"/><path class="cls-1" d="M69.29,161.16C95,160,122,162,148.35,161.22a53.07,53.07,0,0,1,6.7.29c2.19.22,4.35.57,6.5,1s4.26.94,6.37,1.52c7.08,2,14.08,6,22.08,6,29,1,56-12,85.33-8.83l10.13,0c30.34-.12,60.91-.1,91.2,0" transform="translate(-68.88 -12.81)"/><path class="cls-1" d="M69.43,178.55l6.62,0c13,1.43,26,3.43,39.43,2.89q4.9.09,9.78,0c22.75-.17,45.41-2.17,68.74-4.5q5.25-.15,10.47-.13c31.34.06,62,3.92,93.29,2l9.9,0c23,0,46.06-.13,69.46-.48" transform="translate(-68.88 -12.81)"/><path class="cls-1" d="M376.89,13V49q0,3.54,0,7.3C376,84,375,112,376.89,140.49v59" transform="translate(-68.88 -12.81)"/><path class="cls-1" d="M69.46,199.31C99,199,128,217,157,208c22-8,44-14,67.4-10.23q5.4.33,10.8.71c21.6,1.49,43.2,3.25,64.8,1.35,3.38,0,6.68,0,10-.05q34.51-.06,69-.83" transform="translate(-68.88 -12.81)"/><path class="cls-1" d="M394.25,13.45s0,2.91,0,8C389,52,392,84,394.25,115.43V200" transform="translate(-68.88 -12.81)"/><path class="cls-1" d="M412.37,13.3C405,47,404,81,412.42,115.24c0,2.91,0,5.8,0,8.67v75.86" transform="translate(-68.88 -12.81)"/><path class="cls-1" d="M430.33,13.51C421,48,422,81,430.52,115.43V200" transform="translate(-68.88 -12.81)"/><path class="cls-1" d="M448.69,13.26C444,44,443,76,448.71,106.51c0,2.91,0,5.83,0,8.73v84.52" transform="translate(-68.88 -12.81)"/><path class="cls-1" d="M467,13.45v5c0,1.62,0,3.61,0,5.91,0,21.6,0,44.6,0,66.14,0,2.26,0,4.53,0,6.81V164c0,16-9,29-13.83,43" transform="translate(-68.88 -12.81)"/><path class="cls-1" d="M485.17,13.26V41.47c0,3.39,0,7,0,10.81A21.62,21.62,0,0,1,483.82,61a23,23,0,0,1-4.19,6.88C470,79,439,88,454.74,106.29c1.76,2.67,3.67,5.25,5.65,7.79C472.25,129.3,486.5,143,485,163.82a46.29,46.29,0,0,1-1.68,7.84c-3.85,12.71-12.32,23.7-17.3,35.51" transform="translate(-68.88 -12.81)"/><path class="cls-1" d="M503.24,13.44V53.91q0,3.23,0,6.59C504,81,480,84,469,96c-1,2-2,4-1,6,13,25,44,48,30.85,79.15-1.07,2.59-2.26,5.13-3.51,7.64-2.52,5-5.27,9.93-7.73,14.78" transform="translate(-68.88 -12.81)"/><path class="cls-1" d="M521.44,13.26v51c0,2.06,0,4.17-.09,6.26C523,86,505,92,496,104c-1,2-1,6,0,9,11,22,28,43,23.66,68.87-.38,3.14-.88,6.21-1.43,9.27s-1.17,6.12-1.82,9.21" transform="translate(-68.88 -12.81)"/><path class="cls-1" d="M539.78,13.45V75.11C541,79,540,84,539,88c-2,11-10,20-9,31,1,22,11,43,9.89,66.45,0,2.4-.07,4.78-.16,7.2s-.2,4.84-.36,7.34" transform="translate(-68.88 -12.81)"/><path class="cls-1" d="M558,13.26V89.11a566.69,566.69,0,0,0-.06,81.38c.05,4.46.06,8.49.06,12.06v17.21" transform="translate(-68.88 -12.81)"/><path class="cls-1" d="M576.05,13.45C578,30,566,43,559,57c-9.62,20.13,6.78,36.42,13.71,54.92A47,47,0,0,1,575,120c1,11,1,21,1,31.78,0,4.25,0,8.34,0,12.21v6.82C576,180,576,190,575.55,199.45" transform="translate(-68.88 -12.81)"/><path class="cls-1" d="M594.25,13.26v5c0,1.62,0,3.61,0,5.91C597,42,580,49,569,60c-3,4-3,8-2,13,6,24,27,40,27.24,64.8,0,2.18,0,4.32,0,6.44V163.8c.75,11.2-1.25,22.2-2.5,33.28" transform="translate(-68.88 -12.81)"/><path class="cls-1" d="M612.51,13.45V32.21C616,52,595,58,587,72c-2,4,0,8,1,12,9,20,26,37,24.5,60.43,0,4.23,0,8.33,0,12.27V164c-1.51,10,.49,21-4.06,31.28" transform="translate(-68.88 -12.81)"/><path class="cls-1" d="M630.7,13.26V33.62c0,3.13,0,6.54,0,10.2C630,58,622,69,620,82c-3,20,11,37,10.65,56.4,0,2.26,0,4.5.05,6.7v25.52C631,179,629,188,627.53,196" transform="translate(-68.88 -12.81)"/><path class="cls-1" d="M648.78,13.44v33c0,3.92,0,8.09-.17,12.44C645,83,648,107,648.76,131.41c0,2.42,0,4.81,0,7.18v44.15C650,188,648,194,648.06,199.1" transform="translate(-68.88 -12.81)"/><path class="cls-1" d="M667,13.25v59c0,11.73,0,22.73,0,34.24v93.25" transform="translate(-68.88 -12.81)"/><path class="cls-1" d="M376.81,30.89H382c32,4.11,64,.11,96.16,0H683.86" transform="translate(-68.88 -12.81)"/><path class="cls-1" d="M376.45,49.53C410,57,444,53,479.27,49.46h24.42C529,51,553,41,578,44c22,3,43,6,64.14,5.46h41.53" transform="translate(-68.88 -12.81)"/><path class="cls-1" d="M376.3,68.29C407,76,439,72,470.07,68.18c2.11,0,4.19,0,6.37-.05h27.42C523,70,540,63,557,57c7-2,14-1,21,0,29,7,57,13,86.26,11.13h19.58" transform="translate(-68.88 -12.81)"/><path class="cls-1" d="M375.6,87.21a717.71,717.71,0,0,0,93.79-.51h43.05C532,89,549,74,567,74c35,0,69,16,105.32,12.7h11.33" transform="translate(-68.88 -12.81)"/><path class="cls-1" d="M375.33,106.56A49.1,49.1,0,0,1,387,106c30,3,57-13,85.83-15a102.91,102.91,0,0,1,10.38.4C500.53,92.94,517.88,98.25,536,102c8,1,17,2,25.21-.26,2.64-.47,5.25-.91,7.87-1.23A65,65,0,0,1,577,100c29-2,58,8,87.23,5.61h19.62" transform="translate(-68.88 -12.81)"/><path class="cls-1" d="M376,124.54c5-1.54,11,.46,15.81-.35,2.65-.15,5.33-.17,8-.12,18.84.37,38.31,4.31,53.18-7.07,17-14,37-13,56-8,23,6,45,16,69.29,14.71q5.38-.06,10.76-.08c25.05-.1,49.78.43,75,.56h19.57" transform="translate(-68.88 -12.81)"/><path class="cls-1" d="M376.77,142.85h61.91q5,.59,10,1C469,149,485,138,503,133c14-3,27,2,41,4,12,3,23,5,33.8,2.34q5.75-.65,11.49-1.36c18.71-2,37.71-5,57.2-7.23" transform="translate(-68.88 -12.81)"/><path class="cls-1" d="M376.58,161.43H445.9c8.52-.31,17.1-.38,25.75-.33,2.88,0,5.76.05,8.66.1C510,157,540,160,569.7,162.45q5.35-.09,10.66-.35c24.81-1.21,49.29-4.43,72.91-11.82" transform="translate(-68.88 -12.81)"/><path class="cls-1" d="M376.41,178.82h51.34c22.31,1.27,44.2,1.12,66.19.74,3.14-.06,6.29-.12,9.43-.2C522,179,542,179,560.75,178.81h53.39c19.86-.82,40.86,3.18,60-4.63" transform="translate(-68.88 -12.81)"/><path class="cls-1" d="M683.86,13.26V89.12c0,2.87,0,5.76-.21,8.62-1.33,9.13-7,14.69-13.94,19.1-2.32,1.47-4.79,2.81-7.28,4.11C656,126,644,127,645,138a72.49,72.49,0,0,0,5,7.91c12.85,17.77,32.19,31.3,33.78,53.81" transform="translate(-68.88 -12.81)"/><path class="cls-1" d="M376.43,199.58h33.21c3.4,0,7,0,10.64.23C433,200,444,207,457,207c31-2,62-10,93.45-7.42h7.87C592,196,626,193,660.42,199.57h18.27c3.34,0,5.12-.06,5.12-.06" transform="translate(-68.88 -12.81)"/><path class="cls-1" d="M89,200.79C89,215,88,229,87.42,242.62c0,2.51,0,5.08,0,7.71v29.21c.66,3.35,1.23,6.69,1.73,10s.91,6.67,1.31,10c4.77,14.22,5.66,28.82,4.58,43.36q-.42,5.44-1.15,10.88C92,365,91,377,88.72,388.17" transform="translate(-68.88 -12.81)"/><path class="cls-1" d="M114.76,206.11C115,209,116,211,116,214c-1,15-12,28-10.39,44.19v15.06c0,2.26.07,4.54.21,6.82.77,3.49,1.57,7,2.36,10.44,6.61,19.87,13.33,40,8.68,59.83a60.38,60.38,0,0,1-3.28,9.93C108,368,106,378,107,388.07" transform="translate(-68.88 -12.81)"/><path class="cls-1" d="M146,210.08c2,5.92,3,12.92-1,18.92-10,11-23,22-21.32,37.7v8.52q1.25,5.22,2.22,10.41c.65,3.47,1.21,6.93,1.75,10.37,5.15,21,5.22,42,2,62.95-.46,3-1,6-1.56,9-1.08,6-3.08,13-3.84,19" transform="translate(-68.88 -12.81)"/><path class="cls-1" d="M163.54,206.73c11.22,17.73-4.28,30.4-14.38,44A49.53,49.53,0,0,0,144,259a103.31,103.31,0,0,0-3.3,10.2c-.9,3.4-1.62,6.8-2.19,10.2a27.36,27.36,0,0,0-1.2,7.65A37,37,0,0,0,138,295c5.6,24,6.08,48.64,5,72.73-.14,3-.3,6-.49,9s-.38,6-.58,9" transform="translate(-68.88 -12.81)"/><path class="cls-1" d="M173.35,202.06c11.37,15.78,2.85,32.3-4.93,47.21-1.56,3-3.09,5.9-4.42,8.73a95.91,95.91,0,0,0-9.64,18.43,87.72,87.72,0,0,0-3.07,9.47c-.54,2.76-.95,5.56-1.23,8.37s-.44,5.64-.48,8.49C150,307,150,312,150,316c3,20,12,37,10.14,57.17,0,2.65,0,4.95,0,6.83v5.87" transform="translate(-68.88 -12.81)"/><path class="cls-1" d="M178.33,199.18v51c0,2.63-.05,5.32-.36,8.14-1.64,16.43-15.8,27.51-19.9,42.31A29.09,29.09,0,0,0,157,310c1,9,6,16,12,23.07,1.76,2.35,3.48,4.72,5,7.16,2.93,4.9,4.89,10.13,4.34,16.31v29.14" transform="translate(-68.88 -12.81)"/><path class="cls-1" d="M196.41,199.36v43.26c0,2.5,0,5.08-.08,7.71C198,268,185,282,176,297a22.63,22.63,0,0,0-1,18c4,7,10,13,14.68,19.47a45.47,45.47,0,0,1,4.1,6.69C199,357,190,373,191.44,388.74" transform="translate(-68.88 -12.81)"/><path class="cls-1" d="M199.46,196c-.46,4-1.46,7-.46,11,2.67,12,8.44,22.67,12.18,33.83a73.69,73.69,0,0,1,2.33,8.5C217,270,202,288,205,310c.5,6,3,11.75,5.31,17.64.77,2,1.52,3.95,2.16,6C217,353,202,371,203.4,390.69" transform="translate(-68.88 -12.81)"/><path class="cls-1" d="M210.51,196.94C208,199,210,203,210,205c2.5,16.67,16.81,28.47,21.47,43.74a32.14,32.14,0,0,1,1.48,9.64c-1.37,20-1.77,40.74-1.23,61.42q.12,4.44.29,8.86c3,23.34-16,41.34-14,63" transform="translate(-68.88 -12.81)"/><path class="cls-1" d="M229.29,198.73A81.42,81.42,0,0,0,229,207c5,17,21,29,22,46.56.11,2.29.13,4.62.13,7v28.14c-.14,9.32-.14,19.32,0,28.46V324c2.86,23-11.14,42-10.29,64.83" transform="translate(-68.88 -12.81)"/><path class="cls-1" d="M262.92,201.12C261,218,269,233,269.19,250.32c0,2.31,0,4.65,0,7v78.33c0,2.2-.05,4.35-.08,6.46C269,357,266,371,267,386.32" transform="translate(-68.88 -12.81)"/><path class="cls-1" d="M296.6,199.54C296,213,291,225,288.79,238.11a77.18,77.18,0,0,0-1.5,9.8,52.12,52.12,0,0,0,.12,10.28c0,2.73,0,5.51,0,8.35C288,284,277,296,271,311c-2,6-3,12-2,18a44.85,44.85,0,0,0,2.79,8.06,81.44,81.44,0,0,0,3.89,7.41C284,357,289,371,287.4,385.68" transform="translate(-68.88 -12.81)"/><path class="cls-1" d="M328.18,199.7C330,219,310,228,306,246c-1,4,0,8-.33,12.38C306,281,286,297,280,319a17,17,0,0,0,0,10c3.5,7,9.75,12.25,15.19,17.86a55.27,55.27,0,0,1,5,5.8C307,364,298,377,297.36,387.68" transform="translate(-68.88 -12.81)"/><path class="cls-1" d="M346.27,199.14C346,203,347,206,346,210c-4.17,15-18.06,24.44-21.49,38.86a31.12,31.12,0,0,0-.75,9.36C323,278,310,294,300,311c-1,3-3,7-2,11,2.5,7.5,8.5,12.25,14.09,17.14a67.28,67.28,0,0,1,5.32,5.05C330,358,310,374,308.28,389.43" transform="translate(-68.88 -12.81)"/><path class="cls-1" d="M357.09,199.05C357,203,357,206,357,210c-2.5,14.17-11.94,25.56-14.48,39.59a40.74,40.74,0,0,0-.63,8.79C343,279,326,298,332,319a91.5,91.5,0,0,0,4.15,12.53c.79,2,1.59,4.08,2.34,6.13C348,357,327,373,323.07,390.6" transform="translate(-68.88 -12.81)"/><path class="cls-1" d="M360.14,199.17v59c-1,24.34-2.65,48.82-1,73.6q.36,5.31.93,10.64C360,358,355,374,349.38,388.62" transform="translate(-68.88 -12.81)"/><path class="cls-1" d="M70,216.8s2.15,0,6.17.07C104,218,130,231,159,225c23-5,44-14,68.29-9l10.36.57c20.73,1.15,41.39,2.22,62.45.38l9.9,0q34.42-.06,68.79-.43" transform="translate(-68.88 -12.81)"/><path class="cls-1" d="M69.78,235.38h10.3C128,244,176,235,223.79,234.84l10.64.22c21.29.47,42.51,1,63.46.06l9.84,0c23,0,46,0,69.44.18" transform="translate(-68.88 -12.81)"/><path class="cls-1" d="M70,254.05H172.8c20.2-.05,39.2-.05,58.72,0h90.69c3.79-.05,8.79-.05,13.28,0H377" transform="translate(-68.88 -12.81)"/><path class="cls-1" d="M69.76,272.62H120c41,1.38,83,1.38,123.89,0H267c35,1.38,70,.38,104.61,0h5.17" transform="translate(-68.88 -12.81)"/><path class="cls-1" d="M70,291.53h7.51a240.64,240.64,0,0,1,30.34-.8c3.41.1,6.83.26,10.25.46s6.85.45,10.27.73,6.85.58,10.27.92c6.84.66,13.65,1.41,20.4,2.16,3.4.5,6.78.84,10.14,1.05,30.27,1.89,59.16-6.74,88.91-4,2.82.37,5.64.84,8.47,1.36C275,295,283.5,297,292,298c29,3,56-9,85-6.47" transform="translate(-68.88 -12.81)"/><path class="cls-1" d="M70.27,310.08l10-.53c27.74-2.55,55.74-.55,83.09,4l7.62,1c3,.09,6,.08,8.92,0,23.74-.66,47.08-5.92,71-3.39a65,65,0,0,1,6.64,2.14c8.74,3.26,17.19,7.7,26.52,7.7,31,1,61-13,92.8-10.9" transform="translate(-68.88 -12.81)"/><path class="cls-1" d="M72,328.63c34-5.63,67,1.37,100.52,1.49q4.89,0,9.79.06c19.57.06,39.19-.19,59-.95,2.93.39,5.82.9,8.73,1.49,2.17.45,4.35.94,6.54,1.45,6.57,1.55,13.28,3.33,20.4,4.83,6,1,13,0,19,0,26-3,50-10,75.8-8.23H377" transform="translate(-68.88 -12.81)"/><path class="cls-1" d="M71.8,347.27C105,346,137,346,170.49,347.09h7.31c32.2.9,63.2,2.9,95.47,2.11l8.45.1,8.34,0q5.56,0,11.13-.06C326,350,352,347,376.8,347.34" transform="translate(-68.88 -12.81)"/><path class="cls-1" d="M70.56,364.73C90,366,109,364,127.86,364.07c3.14,0,6.29-.05,9.44,0,9.43,0,18.88.2,28.38.72l9.66.69c28.88,2.09,57,4.16,86.66.56a105.8,105.8,0,0,1,33.44-.46c3.35.13,6.7.26,10,.37,23.4.83,46.7,1.14,70.44-1.06" transform="translate(-68.88 -12.81)"/><path class="cls-1" d="M377,199.18V275c0,2.87,0,5.76,0,8.66,0,14.3,0,29.3,0,43V341.8q0,3.45,0,6.74c1,12.46-3,25.46-2.29,37.64" transform="translate(-68.88 -12.81)"/><path class="cls-1" d="M70,386.28c26,3.72,51,.72,76.61-.79h9c2.43,0,4.89,0,7.38.06,42,8.45,83,1.45,124.84,1.64l9.75.66c25.83,1.7,51.32,2.81,77.13-1.87" transform="translate(-68.88 -12.81)"/><path class="cls-1" d="M394.39,199.64V357c0,4.37,0,8.38,0,11.93a139.15,139.15,0,0,0-.05,17.21" transform="translate(-68.88 -12.81)"/><path class="cls-1" d="M412.58,199.45v67.33c0,2.81,0,5.66-.05,8.54C400,306,407,338,412.56,368.74c0,3.55,0,6.65,0,9.2v8" transform="translate(-68.88 -12.81)"/><path class="cls-1" d="M430.66,199.63v59a28.75,28.75,0,0,1,.42,9.19C412,300,412,337,430.63,368.94c0,3.54,0,6.63,0,9.18,0,5.1,0,8,0,8" transform="translate(-68.88 -12.81)"/><path class="cls-1" d="M448.85,199.44v59a49.89,49.89,0,0,1-.28,9.09C449,273,446,277,444,281c-6,15-23,28-17,46,6,15,23,25,21.85,41.74,0,3.55,0,6.65-.06,9.24-.14,5.22-.32,8.32-.32,8.32" transform="translate(-68.88 -12.81)"/><path class="cls-1" d="M453.37,206.61C445,225,455,242,464,257a18.16,18.16,0,0,1,2.9,9.45,58.16,58.16,0,0,1-.56,8.16C466,291,451,302,452,318c2,16,17,29,15.11,46.45,0,3.32,0,6.33,0,9-1.08,4.55.92,8.55-.59,13.18" transform="translate(-68.88 -12.81)"/><path class="cls-1" d="M466.33,206.72C454,227,473,240,484,255c2,4,1,8,1.17,11.8a222.5,222.5,0,0,0,.12,83.19c0,4.24,0,8.22,0,11.88v9.94c0,2.94,0,5.5,0,7.6-.07,4.22-.16,6.63-.16,6.63" transform="translate(-68.88 -12.81)"/><path class="cls-1" d="M488,203.13C485,210,482,218,486,226c4.67,7.33,11.11,13.78,14.65,21a22.48,22.48,0,0,1,2.5,11.64C493,293,493,324,503.38,357.53v28.61" transform="translate(-68.88 -12.81)"/><path class="cls-1" d="M516.67,200c-3.89,16.66,2.4,31.93,4.36,48.4a68.07,68.07,0,0,1,.53,10C521,278,503,293,507,314c5,18,16,34,14.57,52.92v19" transform="translate(-68.88 -12.81)"/><path class="cls-1" d="M539.53,199.66C537,214,541,229,539.89,242.89q0,3.77,0,7.71v7c0,2.38,0,4.8-.09,7.24C538,282,525,296,528,314c4,17,13,32,11.87,49.26,0,3.5,0,6.67,0,9.47v13.41" transform="translate(-68.88 -12.81)"/><path class="cls-1" d="M558.12,199.45v59c0,2.73,0,5.51,0,8.32a439.77,439.77,0,0,0,0,90c0,4.37,0,8.38.06,11.93V386" transform="translate(-68.88 -12.81)"/><path class="cls-1" d="M575.69,199.13C573,217,577,236,576.19,253.57v30.15C576,303,576,323,576.19,341.8v27.13c0,3.55,0,6.65,0,9.25,0,5.2.08,8.24.08,8.24" transform="translate(-68.88 -12.81)"/><path class="cls-1" d="M591.91,196.8c-5.91,25.2,3.09,51.2,2.45,76l0,7.42v88.54C594,375,596,381,595.17,387.27" transform="translate(-68.88 -12.81)"/><path class="cls-1" d="M608.65,195c-11.65,31,7.35,62,4,92.87V357c0,4.37,0,8.38,0,12,.35,6-.65,13,.92,18.79" transform="translate(-68.88 -12.81)"/><path class="cls-1" d="M627.74,195.79C625,206,623,216,624,226c2,20,10,40,6.48,60.41A54.66,54.66,0,0,1,627,297c-7.5,17.25-26.81,40.13-25.45,58.92a22.25,22.25,0,0,0,2.55,9C609,375,621,375,629,382c1,2,1,4,1.8,6.38" transform="translate(-68.88 -12.81)"/><path class="cls-1" d="M648.24,198.83C645,224,649,250,648.83,275.48a41.88,41.88,0,0,1-1.06,7.88c-4.13,17.92-18.89,33-26.77,49.64-3,7-6,16,0,20,11,7,27,10,27.87,25.12,0,5.1,0,8,0,8" transform="translate(-68.88 -12.81)"/><path class="cls-1" d="M667.11,199.44v11.67c-.11,18.89-.11,36.89,0,55.66-.05,2.82-.1,5.66-.18,8.53C667,292,657,305,650,320c-2,5-5,11-3,16,7,14,23,24,20.11,41.93v8" transform="translate(-68.88 -12.81)"/><path class="cls-1" d="M377,217.07h29.69C425,216,440,228,457,227c31-3,60-12,91-9.93h9C574,219,589,210,605,208c21-2,40,8,60.88,9,2.9.1,5.46.1,7.69.1H684" transform="translate(-68.88 -12.81)"/><path class="cls-1" d="M376.76,235.65h19.56c3.08,0,6.47,0,10.12,0C436,238,465,247,496,238c17-5,35-2,52-2.35h8.78c2.79,0,5.57,0,8.32,0C569,234,573,236,577,235c16-4,29-13,46-9s33,10,50.37,9.65h10.44" transform="translate(-68.88 -12.81)"/><path class="cls-1" d="M376.92,254.31h29.7c38.38,4.69,77.38-.31,115,0h49.55c2.65,0,5.28,0,7.85-.09,29-7.22,58-2.22,88,.08h17" transform="translate(-68.88 -12.81)"/><path class="cls-1" d="M376.73,272.89h29.7c18,.1,37.09.11,55.35.08l7.76,0q48.69.07,96.05-.06h16.87c23.54.11,47.54.11,71.62,0h29.71" transform="translate(-68.88 -12.81)"/><path class="cls-1" d="M376.92,291.8h13.57a483.64,483.64,0,0,0,57.19,2.36c3.2-.06,6.4-.14,9.61-.26C495,289,534,289,571.74,291.76c3.36,0,6.59,0,9.79,0h17.55q36.64,1.56,73.47.39c3.52-.11,7-.25,10.58-.4" transform="translate(-68.88 -12.81)"/><path class="cls-1" d="M376.72,310.37h3.64q4.13.84,8.26,1.5c19.31,3.13,38.94,3.66,58.73,2.78,3.23-.14,6.47-.32,9.7-.54A360.56,360.56,0,0,1,583,311.67c3,.44,6,.91,9,1.38,6,.95,12,1.95,18,2.95,21,4.38,40.47-2.73,60.21-4.63,2.85-.28,5.71-.45,8.62-.47" transform="translate(-68.88 -12.81)"/><path class="cls-1" d="M376.91,329h4c23.4,3.48,47.11,3.9,70.69,3.07q5.06-.18,10.1-.43C500,328,543,318,579,337.39c2.18,1.54,4.3,3.12,6.4,4.58,4.19,2.92,8.3,5.36,12.63,6,23.63,1.75,45-14.11,68.58-17.51a59.93,59.93,0,0,1,10.33-.61" transform="translate(-68.88 -12.81)"/><path class="cls-1" d="M376.72,347.61h10.55c27,.31,53.5.37,80.61.19l10.19-.08C506,349,534,343,560.94,351.34a37.79,37.79,0,0,1,5.47,3.83,62.12,62.12,0,0,1,5,4.68c2.13,2.22,4.19,4.58,6.27,7C588,384,602,384,613,368.56q3.69-2.79,7.55-5.21a100.91,100.91,0,0,1,52.19-15.64q4-.07,8,.17" transform="translate(-68.88 -12.81)"/><path class="cls-1" d="M375.81,365.12C381,365,387,365,391.56,365H538.92c9.78-.75,17,2.86,23.3,8.25a72.33,72.33,0,0,1,6,5.88C580,388,591,417,603,407c9-7,11-27,25.24-33.86a67.64,67.64,0,0,1,8.32-3.76c14.3-5.38,30.67-6.38,46.9-4.38" transform="translate(-68.88 -12.81)"/><path class="cls-1" d="M683.94,199.38s0,2,.06,5.45v61.95c0,2.81,0,5.66-.09,8.53-.49,3.16-1,6.32-1.4,9.46s-.84,6.26-1.19,9.37C679,313,678,331,680.39,349.88c.39,3.12.87,6.24,1.45,9.39s1.27,6.3,2,9.47c.09,3.55.11,6.65.11,9.2v8" transform="translate(-68.88 -12.81)"/><path class="cls-1" d="M374.1,386.29c7.9-.29,15.9-.29,24.18-.53h24.26c3.95,0,8.09,0,12.35.05,19.11.19,39.11.19,58,0h63.92c2.92,0,5.83,0,8.72.06,25.51,1.18,50.51,2.18,77-.05H684" transform="translate(-68.88 -12.81)"/><path class="cls-1" d="M701.93,13.56V98.08C703,116,686,126,672,132c-4,2-8,7-6,12,10,19,29,32,33.94,53.88" transform="translate(-68.88 -12.81)"/><path class="cls-1" d="M720.12,13.37v93.25C723,126,699,131,696,147c-4,19,17,31,20.36,48.52" transform="translate(-68.88 -12.81)"/><path class="cls-1" d="M738.2,13.55v102C738,122,739,129,735,135c-14,21-4,41,1,62.06" transform="translate(-68.88 -12.81)"/><path class="cls-1" d="M756.39,13.36V132.5C755,155,754,177,756.06,199.22" transform="translate(-68.88 -12.81)"/><path class="cls-1" d="M774.65,13.56V156.8c.35,12.2.35,23.2,0,35.24v8" transform="translate(-68.88 -12.81)"/><line class="cls-1" x1="723.96" y1="0.56" x2="723.96" y2="187.06"/><path class="cls-1" d="M810.92,13.55V30.76c0,3.56,0,7.56,0,11.88C814,62,789,63,784,77c-9,24,18,43,26.61,64.06.27,2.72.31,5.4.31,8v51" transform="translate(-68.88 -12.81)"/><path class="cls-1" d="M829.12,13.36V42.5c0,2.19,0,4.47-.11,6.82C829,69,806,71,796,85c-4,5,1,11,3,17,8,17,31,26,30.1,46.87,0,2.66,0,5.24,0,7.74v43.26" transform="translate(-68.88 -12.81)"/><path class="cls-1" d="M847.46,13.56V45.62c0,2.12,0,4.32-.08,6.57C847,69,831,78,821,90a23.53,23.53,0,0,0-2,8c6,19,26,32,23.08,53.87-.16,3-.29,6-.34,9-.2,12,1,23.85,4.76,35.67" transform="translate(-68.88 -12.81)"/><path class="cls-1" d="M865.66,13.37V45.43c0,2.12,0,4.32,0,6.58C866,68,856,80,855,95c-2,20,3,40-.33,60.09a61.15,61.15,0,0,0-.51,9.65,46,46,0,0,0,4.78,19.46" transform="translate(-68.88 -12.81)"/><path class="cls-1" d="M883.73,13.55s0,2.15,0,6C882,43,884,66,882.42,88.5c-.13,3.66-.26,7.29-.41,10.91-.77,18.08-2.24,35.78-9.3,52.77a53.49,53.49,0,0,0-1.36,8.73,33.63,33.63,0,0,0,3.33,17.55" transform="translate(-68.88 -12.81)"/><path class="cls-1" d="M901.78,13.25C896,50,901,87,901.91,124c-.24,2.62-.54,5.26-.88,7.91-2.36,18.57-6.41,37.75-2,56.42" transform="translate(-68.88 -12.81)"/><path class="cls-1" d="M919.78,13.17C907,52,920,91,920,130.88v9.73q0,14.56,0,28.93c0,3.17,0,6.35,0,9.54q0,9.55-.09,19.17" transform="translate(-68.88 -12.81)"/><path class="cls-1" d="M938.18,13.21C938,27,933,40,932,54c-1,28,8,56,6.1,84.55q0,5.53,0,11,.08,16.56.24,33.07v17.21" transform="translate(-68.88 -12.81)"/><path class="cls-1" d="M956.45,13.55s0,3.69-.13,9.91C952,59,955,94,955.27,130.46q0,5.25,0,10.5c0,14,.37,28,1.19,41.92v17.18" transform="translate(-68.88 -12.81)"/><path class="cls-1" d="M974.65,13.36v33C974,68,974,89,973.56,110.55c0,3.47-.11,6.93-.15,10.38-.25,20.74-.08,41.4,1.24,61.74.18,3.16.26,6,.29,8.77s0,5.49-.1,8.43" transform="translate(-68.88 -12.81)"/><line class="cls-1" x1="615.61" y1="18.19" x2="922.66" y2="18.19"/><path class="cls-1" d="M684.3,49.57h180c2.91,0,5.81,0,8.68,0C887,49,899,43,913,41c21-5,39,6,58.76,8.52,3.1,0,5.86,0,8.27,0h11.32" transform="translate(-68.88 -12.81)"/><path class="cls-1" d="M684.46,68.24H726c4,.77,9-.23,13-1.23,14-4,27-11,42-7,25.2,6.3,50.89,7.21,76.45,7.61l10.94.16C887,72,901,55,919,53c23-2,41,17,64.29,15.13l8.22.11" transform="translate(-68.88 -12.81)"/><path class="cls-1" d="M684.27,86.81H714c3.67,0,7.62,0,11.82,0C743,86,757,71,774,74c33.75,6,65.81,10.31,98.89,12,3.68.19,7.36.34,11,.24C900,86,911,71,928,74c18,5,34,18,53.43,15.11a92.69,92.69,0,0,0,9.8-1.45" transform="translate(-68.88 -12.81)"/><path class="cls-1" d="M684.48,105.72H726c4,1.28,9,.28,13-.72,15-5,30-12,46-9,30.75,4.5,60.94,7.31,91.24,8.74q5.06.24,10.11.43C895,105,905,104,914,104c20-1,37,15,58.23,12.79a38.55,38.55,0,0,0,9.4-2.05,40.65,40.65,0,0,0,9.39-4.82" transform="translate(-68.88 -12.81)"/><path class="cls-1" d="M684.29,124.29h54.78C792,121,845,123,898.27,124.29h8.16C917,123,927,127,937.49,131.41c2.53,1.08,5.08,2.14,7.66,3.1A73.78,73.78,0,0,0,953,137c13,3,26-2,37.59-7" transform="translate(-68.88 -12.81)"/><path class="cls-1" d="M647.27,130.81c3.12-.21,6.23-.33,9.33-.38,34.13-.46,67.87,8.79,102.44,11.82,3.43.3,6.87.54,10.31.7,40.65.05,81.65.05,122.5,0h22C940,145,966,157,991,146.1" transform="translate(-68.88 -12.81)"/><path class="cls-1" d="M653.69,150.21C665,141,681,144,694,145c31,4,60,18,91.59,16.53h23.32C815,162,821,162,825,160a87.5,87.5,0,0,1,10.41-4.81C848,150,862,149,875.84,150.44c3.32.34,6.63.81,9.94,1.39,8.83,1.55,17.64,3.82,26.54,6.18l6.68,1.78a244.57,244.57,0,0,0,72.21,2.27" transform="translate(-68.88 -12.81)"/><path class="cls-1" d="M674.58,174.13C702,150,738,178,769,179c5,0,11,0,16.41-.07h30.85C822,179,829,181,833,176c28-32,61-9,92.4,2.36,2.2.27,4.33.41,6.43.57,17.17.07,35.17.07,51.71,0l7.75,0" transform="translate(-68.88 -12.81)"/><path class="cls-1" d="M991.54,13.37V61.81c0,2.14,0,4.31,0,6.52C990,105,990,141,992,177.79c.19,2.38.42,4.78.69,7.16.55,4.77,1.29,9.48,2.25,13.92" transform="translate(-68.88 -12.81)"/><path class="cls-1" d="M684.06,199.62c27.94-7.62,56.94-2.62,85,0l8.15.09H827c2.43-.07,4.87-.1,7.3-.17C846,199,853,189,862,181c7-5,15-2,23,0,15,6,29,18,45.61,18.42,4,.24,7.86.26,11.56.26h26c8.84.32,17.84-1.68,26.74-1" transform="translate(-68.88 -12.81)"/><path class="cls-1" d="M1008.59,13.85C1006,30,993,43,995,60c.63,3.63,1.36,7.2,2.16,10.75C1005,99,1011,128,1008.9,157.07q0,3.77,0,7.3C1008,176,1014,187,1022.52,194.3" transform="translate(-68.88 -12.81)"/><path class="cls-1" d="M1026.92,13.61C1024,34,999,49,1009,69c16,31,16,63,19,94.64a17.23,17.23,0,0,0,3.16,5.42c5.43,6.46,15.19,10.15,21.79,14.58" transform="translate(-68.88 -12.81)"/><path class="cls-1" d="M1045.17,13.82C1047,32,1029,46,1030,63c0,27,14,51,14,79,0,11,8,20,16.24,26.94,2,1.87,4,3.76,5.86,5.78a34.82,34.82,0,0,1,4.8,6.54" transform="translate(-68.88 -12.81)"/><path class="cls-1" d="M1063.39,13.71C1066,40,1056,65,1059.63,91c.11,3.33.27,6.65.45,10,1.26,23.27,3.6,46.52,3.29,70v29.14" transform="translate(-68.88 -12.81)"/><path class="cls-1" d="M1081.92,14.73C1086,46,1082,78,1080.73,109.46c0,3.32,0,6.64,0,10,.09,10,.32,19.93.79,29.94,0,2.63,0,5.21.07,7.71v43.26" transform="translate(-68.88 -12.81)"/><path class="cls-1" d="M1100.22,14.9C1105,47,1101,79,1100,111.12l0,8.63q0,8.63-.1,17.26v55.12c0,5.1,0,8,0,8" transform="translate(-68.88 -12.81)"/><path class="cls-1" d="M1118,14.19C1119,45,1121,75,1122.1,106c.08,3.09.1,6.17.05,9.26a183.21,183.21,0,0,1-4.24,37.48c0,2.2,0,4.36,0,6.45v23.91C1117,188,1119,194,1119,199.21" transform="translate(-68.88 -12.81)"/><path class="cls-1" d="M1136.09,13.63c0,3.14,0,6.29,0,9.47.92,21.9-.08,44.9,6.58,66.06.84,3,1.77,6,2.83,9s2.22,5.91,3.52,8.81a23.61,23.61,0,0,1,1.62,7.51,30.68,30.68,0,0,1-.63,7.5c-4,17-17,31-13.91,49,0,4.37,0,8.36.07,11.81-.16,5.19.84,10.19,1.51,15.39" transform="translate(-68.88 -12.81)"/><path class="cls-1" d="M1154.51,14.15C1154,50,1161,84,1168,119a30.83,30.83,0,0,1-.73,9.27c-2,8.86-7.27,16.73-10.27,25.73-1,6-3,11-2.43,17.2-.14,4.36-.14,8.36-.1,11.86,1.53,4.94.53,10.94.76,16" transform="translate(-68.88 -12.81)"/><path class="cls-1" d="M1172.77,14.26C1175,49,1180,83,1179.29,118.47c0,3.5,0,7-.19,10.51a196.31,196.31,0,0,1-6.43,42c0,4.37,0,8.38,0,11.93a146.88,146.88,0,0,1,.08,17" transform="translate(-68.88 -12.81)"/><path class="cls-1" d="M1190.73,14c.23,3.1.43,6.2.62,9.3C1191,54,1189,85,1190.71,115.81v84.52" transform="translate(-68.88 -12.81)"/><path class="cls-1" d="M1208.9,13.63v8c-8.9,33.33-6.9,66.33,0,99.16v79.31" transform="translate(-68.88 -12.81)"/><path class="cls-1" d="M1227.16,13.82s0,2.11,0,5.87C1216,54,1212,86,1225.21,120c.13,3.66.24,7.31.3,11,.13,7.27.09,14.5-.38,21.64-.31,3.16-.62,6.32-.88,9.49-1,12.68-1.33,25.4,1.58,37.84" transform="translate(-68.88 -12.81)"/><path class="cls-1" d="M1245.35,13.63s0,3.29-.17,9C1239,55,1225,87,1239.11,118.57c.42,2.22.84,4.45,1.23,6.7,1.56,9,2.68,18.13.73,26.93-.52,3.11-1.16,6.23-1.71,9.34-2.23,12.47-3.11,25,2.14,37.5" transform="translate(-68.88 -12.81)"/><path class="cls-1" d="M1263.43,13.82v9C1263,30,1264,36,1263,43c-5,25-10,48-7.63,71.82a83.23,83.23,0,0,0,.71,9.52A75.32,75.32,0,0,0,1258,134a30.78,30.78,0,0,1,.12,18.7c-.45,3.09-1,6.18-1.55,9.26-2,12.34-2.51,24.63,2.55,37.22" transform="translate(-68.88 -12.81)"/><path class="cls-1" d="M1281.62,13.63v30.8c0,3.68,0,7.6,0,11.71C1280,73,1278,89,1278.21,106.45c0,3.62.08,7.22.17,10.83.27,10.82.73,21.6.8,32.33-.36,2.8-.74,5.61-1.09,8.41-1.8,14-2.57,28.11,1.64,41.66" transform="translate(-68.88 -12.81)"/><path class="cls-1" d="M991.46,31.26h50.78C1056,30,1070,34,1084,37c20,5,38-5,57.69-3.64q3.58.36,7.19.65,10.8.85,21.61.85c3.61,0,7.21-.08,10.8-.22C1213,30,1245,31,1276.58,31.26h21.93" transform="translate(-68.88 -12.81)"/><path class="cls-1" d="M991.27,49.84h46.88c2,0,4.08,0,6.2,0C1080,60,1113,60,1150.1,53.36c2.13.25,4.25.5,6.37.73,3.19.34,6.38.66,9.57.91,15,1,30-1,45-4,24-4,47-1,69.93-1.16h17.39" transform="translate(-68.88 -12.81)"/><path class="cls-1" d="M984.65,68.34a58.34,58.34,0,0,1,10.17-6.77c12.38-6.46,25.38-7.29,38.58-5.71,3.3.4,6.61,1,9.93,1.6C1065,62,1083,80,1108,76c13-3,25-5,37.19-3.82,2.71.12,5.42.28,8.13.39q5.43.24,10.84.25C1208,71,1251,68,1294.62,68.5h3.87" transform="translate(-68.88 -12.81)"/><path class="cls-1" d="M988.5,88.37C997,87,996,78,1001.86,74.32a30.35,30.35,0,0,1,7.87-6c8.29-4.38,17.77-4.08,27.52-1.53a93.43,93.43,0,0,1,9.81,3.21C1074,89,1105,92,1137.44,92c2.69.4,5.39.84,8.12,1.21A72.37,72.37,0,0,0,1162,94l7.83-1.49C1207,83,1245,88,1281.75,87l8.14,0,8.12,0" transform="translate(-68.88 -12.81)"/><path class="cls-1" d="M990.91,110.2C1003,108,1005,94,1014.58,88a30.15,30.15,0,0,1,7.43-3.9c8.86-3.13,18.38-1.54,28,2.4a97.15,97.15,0,0,1,9.7,4.64c14.24,12.9,31.24,14.9,49.6,17q3.66.91,7.29,1.71a180.51,180.51,0,0,0,28.62,3.86c3.54.19,7.06.27,10.58.24,7.08-.43,14.11-.9,21.15-1.67,2.34-.26,4.69-.55,7-.88,31-7.32,62-5.32,94.06-5.33h19.69" transform="translate(-68.88 -12.81)"/><path class="cls-1" d="M990.5,130.26C999,126,1007,122,1015,118.92c3-1,6-2,9-3,15-4.63,29.67-6.81,45.92,5.06,3,2.5,6.75,3,10.67,3.07s8-.3,11.69.46C1114,123,1136,132,1158,133c20,0,38-11,57.93-8.32,3,0,6,.07,9.1.09,24.33.21,49,.14,73-.21" transform="translate(-68.88 -12.81)"/><path class="cls-1" d="M991,146.34c7-2.34,14-2.34,20.85-3.9,3-.21,6-.36,9.05-.47,24.13-.88,48.09,1.08,71.89,1.26h8.46a774.65,774.65,0,0,0,114-.06l10.39-.06c24.17-.11,48-.08,72.88.12" transform="translate(-68.88 -12.81)"/><path class="cls-1" d="M991.23,161.8h29.7c13.07.2,27.07.2,39.6,0h135.38c34.09-.8,68.09-2.8,102,0" transform="translate(-68.88 -12.81)"/><path class="cls-1" d="M991.22,179.18C999,180,1008,179,1016,178c21-2,40-14,62-10,17,2,31,13,48.91,11.18h67.77C1229,178,1263,176,1297.42,179.1" transform="translate(-68.88 -12.81)"/><path class="cls-1" d="M1298.51,13.64v58c0,2.16-.07,4.34-.1,6.55.59,20.83-1.41,41.83.1,63-.25,3.3-.43,6.58-.56,9.85-.63,16.34.11,32.33.43,49.09" transform="translate(-68.88 -12.81)"/><path class="cls-1" d="M994.33,199c23.67-1,44.67-13,68.67-18,12-2.67,20,4.89,28.74,11.11a55.82,55.82,0,0,0,6.77,4.24c27.49,5.65,55.49-.35,82.57,3.58,2.51,0,5,0,7.51,0h17.61c30.8-1,60.8-1,92.18,0" transform="translate(-68.88 -12.81)"/><path class="cls-1" d="M700,197.45c1,9.55,3,18.55,2.11,28.23V265.5c2.94,30.5,6.94,60.5,0,91.59-.06,4.39-.06,8.4,0,12v17.21" transform="translate(-68.88 -12.81)"/><path class="cls-1" d="M716.35,195.07C720,206,720,218,720.26,228.69v32.23C717,279,732,291,740,306c1,4,0,10-2,14-8,15-18,29-17.66,45.68-.05,3.13-.07,6-.08,8.47v11.91" transform="translate(-68.88 -12.81)"/><path class="cls-1" d="M736.1,196.68C739,208,738,218,738.33,228.88V261.1C737,280,760,285,765,302c1,4-1,7-2,11-7,18-24,32-24.67,52.88v20.37" transform="translate(-68.88 -12.81)"/><path class="cls-1" d="M756.19,198.89c-1.19,6.11.81,12.11.34,17.84V235.5q-.1,4-.22,8.13c-.07,2.72-.15,5.47-.22,8.23C752,272,772,281,777,298a24.38,24.38,0,0,1,0,12c-5,18-19,32-20.47,51.16v7.68c0,3.56,0,6.65,0,9.19.12,5,.29,7.76.29,7.76" transform="translate(-68.88 -12.81)"/><path class="cls-1" d="M774.79,199.74V217C771,256,772,296,774.79,335.28v21.83c.21,7.89.21,16.89,5.05,24.23" transform="translate(-68.88 -12.81)"/><path class="cls-1" d="M793,199.55v17.2C786,265,776,322,805.26,365" transform="translate(-68.88 -12.81)"/><path class="cls-1" d="M811.06,199.74V217C812,227,812,237,807,246c-21,35-5,74,15.71,103" transform="translate(-68.88 -12.81)"/><path class="cls-1" d="M829.25,199.55v29.14C831,247,822,262,817,278c-8,29,19,52,20.45,81.09" transform="translate(-68.88 -12.81)"/><path class="cls-1" d="M846.55,196.1c-.55,10.9,1.45,21.9,1,32.61,0,2.24,0,4.56,0,7V386.25" transform="translate(-68.88 -12.81)"/><path class="cls-1" d="M858.89,183.65C865,202,866,221,865.78,239.73c0,2.11,0,4.21,0,6.47V273c.21,20,.21,39,.07,58.66,0,2.31,0,4.58-.07,6.82v30.41c.21,6.15.21,11.15,0,17.21" transform="translate(-68.88 -12.81)"/><path class="cls-1" d="M874.7,178c8.3,25,10.3,50,9.17,75.65,0,2.33,0,4.7,0,7.1C889,293,886,325,884,357.27c.15,2.41.35,4.83.57,7.26.63,7.29,1.37,14.61,1.36,21.75" transform="translate(-68.88 -12.81)"/><path class="cls-1" d="M899.1,188c4.9,20,.9,40,3.41,60.25.15,2.92.38,5.81.72,8.68,1.37,11.48,4.57,22.84,11.77,34,11,16-8,31-11,49-1,9,1,18,4.4,26.34,1.05,3.16,2.09,6.33,3,9.52s1.78,6.4,2.42,9.65" transform="translate(-68.88 -12.81)"/><path class="cls-1" d="M920.31,197.89a188.54,188.54,0,0,1,2.3,34.06q0,4-.2,8.05c-.1,2.67-.24,5.33-.41,8-1,7,10,8,12,14,12,25,3,52-9,75-4,7,0,15,6.35,21.49,1.93,2.2,4,4.33,6.15,6.4S941.83,369,944,371c3,3,3,7,3.64,10.4" transform="translate(-68.88 -12.81)"/><path class="cls-1" d="M939.75,198.86C943,211,940,224,944,234c10,34,10,71-3,104-1,4,0,8,3.06,10.5a46.36,46.36,0,0,0,5.26,5c5.68,4.74,12.18,9,15.68,15.49a37.27,37.27,0,0,1,2.27,10.36" transform="translate(-68.88 -12.81)"/><path class="cls-1" d="M956.59,199.74V318.91c0,2.81,0,5.59,0,8.32A49.12,49.12,0,0,1,957,335c5,16,24,27,20.82,45.14" transform="translate(-68.88 -12.81)"/><path class="cls-1" d="M975,199.55c0,20.45,0,39.45-.19,59V386.05" transform="translate(-68.88 -12.81)"/><path class="cls-1" d="M684.62,217.18H696c2.41,0,5.16,0,8.22-.07,16.83-.11,32.83-.11,49.77,0,2.52,0,5.08,0,7.68.05h66.57l7.74-.09C870,205,902,213,936.89,217.18h24C973,217,985,217,996.74,215.59" transform="translate(-68.88 -12.81)"/><path class="cls-1" d="M684.44,235.76H846.81c3-.14,5.89-.21,8.82-.3C878,234,900,235,922.16,235.69c2.52,0,5,0,7.42.07h32.21a285.65,285.65,0,0,0,32.13-.72" transform="translate(-68.88 -12.81)"/><path class="cls-1" d="M684.6,254.42H972.09a158.89,158.89,0,0,1,19.76,0" transform="translate(-68.88 -12.81)"/><path class="cls-1" d="M684.41,273h16.25c41.34-1,82.34-3,123.73,0h40l8.73,0C898,278,918,264,937,248c7-6,18-7,25,0,9,9,16,21,29,23.43" transform="translate(-68.88 -12.81)"/><path class="cls-1" d="M683.82,291.9C733,290,782,283,831.41,291.9h20C872,291,893,294,913,285c13-6,21-28,36-23,16,6,25,26,42.65,28.47" transform="translate(-68.88 -12.81)"/><path class="cls-1" d="M679.74,311C710,312,740,303,770,302c13-1,25,6,38,8,8,1,15,0,23.22.48h20C883,311,913,303,944,295c15-4,30,15,47.59,15.07" transform="translate(-68.88 -12.81)"/><path class="cls-1" d="M677.94,329.91C725,326,772,321,819.33,329.15h35c2.52-.06,5-.08,7.44-.11,42.24-3,84.24-5,126.26.1h3.62" transform="translate(-68.88 -12.81)"/><path class="cls-1" d="M681.61,348C720,347,757,346,795,347.7c3.94,0,7.93,0,11.95,0h67.26c24.84,1.29,49.84-.71,75-1.08,3.73-.13,7.47-.25,11.19-.33a312.14,312.14,0,0,1,33.28.81" transform="translate(-68.88 -12.81)"/><path class="cls-1" d="M684.1,365.11h25.35c9.55-.11,18.55-.11,28.85,0H864.21C896,366,927,364,959,360a105,105,0,0,1,37.46,3.5" transform="translate(-68.88 -12.81)"/><path class="cls-1" d="M995.06,198.55c4.94,20.45-4.06,40.45-3.25,60-.06,2.73-.08,5.5-.13,8.32V386.06" transform="translate(-68.88 -12.81)"/><path class="cls-1" d="M684.25,385.87h62C775,388,800,374,818,351a9.59,9.59,0,0,1,9-2c11.33,8,18.22,20.89,28.12,29.1a34.94,34.94,0,0,0,8.12,5.13C899,392,936,379,972,380c8,0,17,1,24.92,4.12" transform="translate(-68.88 -12.81)"/><path class="cls-1" d="M1022.59,194a20.58,20.58,0,0,1,3.41,16c-5,20-19,37-16.93,58.4,0,2.64,0,5.32,0,8v8.12c.05,2.89.08,5.8.12,8.71C1010,314,1009,336,1009,357.38v29.14" transform="translate(-68.88 -12.81)"/><path class="cls-1" d="M1052.89,183.38C1054,186,1056,189,1055,192c-4,28-27,47-27.77,75.15q.87,5.09,1.53,10.16c4,30.49,2.76,61.1-1.53,91.81,0,3.55,0,6.64.06,9.19.11,5.1.26,8,.26,8" transform="translate(-68.88 -12.81)"/><path class="cls-1" d="M1070.93,181c.07,3,.07,6,.07,9-6,26-27,46-26.3,72.94a25.27,25.27,0,0,0,1.87,7.12c3.76,9.05,11.76,16.61,14.43,25.94,8,22-13,42-16,65,0,3-1,7,.56,10.41a63.55,63.55,0,0,0,1.48,6.78c.61,2.24,1.33,4.47,2.11,6.68" transform="translate(-68.88 -12.81)"/><path class="cls-1" d="M1063.5,199.82v13.41c0,2.8,0,6,0,9.43C1061,245,1071,260,1082,278c15,23-11,50-17,77a18.23,18.23,0,0,0,2.09,12.9,18,18,0,0,0,3.87,4.76,18.22,18.22,0,0,0,5.78,3.36" transform="translate(-68.88 -12.81)"/><path class="cls-1" d="M1081.76,200v5.65c0,2.39,0,4.8-.16,7.2s-.28,4.81-.4,7.19C1081,226,1080,232,1083,237c6,15,17,29,14.77,46.12a92.41,92.41,0,0,1-.64,9.51c-1.88,15.87-7.63,31.87-12.13,47.37a22.94,22.94,0,0,0,2.2,14.55,31.85,31.85,0,0,0,4.1,5.5,40.83,40.83,0,0,0,10.86,8.43" transform="translate(-68.88 -12.81)"/><path class="cls-1" d="M1100,199.81c5,29.19,1,58.19,0,87.15q0,3.93,0,7.86v15.65q0,4.3,0,8.52c-2,19,10,34,18,50.4" transform="translate(-68.88 -12.81)"/><path class="cls-1" d="M1119.11,198.93c13.89,29.07,2.89,58.07-1,88.18-.11,4-.11,7.9-.11,11.83v20.24c0,12.82,0,24.82,0,38.19V369.3c0,5.7,0,11.7,0,17.23" transform="translate(-68.88 -12.81)"/><path class="cls-1" d="M1137.74,197.94C1153,229,1140,261,1136.23,293.07l-.06,7.73q-.11,19.35-.11,38.75,0,4.68,0,9.37c-.07,13.08-.07,27.08.38,40.34" transform="translate(-68.88 -12.81)"/><path class="cls-1" d="M1155.33,198.81C1165,225,1171,254,1159.27,281c-.89,3.43-1.81,6.87-2.7,10.31s-1.74,6.89-2.48,10.35c-.07,2.83-.1,5.67-.12,8.49,0,8.48,0,16.91.18,25.33.06,3.41.13,6.82.2,10.33,1.65,16.19.65,32.19.88,48.13" transform="translate(-68.88 -12.81)"/><path class="cls-1" d="M1172.84,199.66C1169,215,1184,223,1188.78,235.78a36.8,36.8,0,0,1,2.21,8.39c2.75,19.52-10.46,38.85-18.55,57.58-.23,2.83-.24,5.65-.24,8.46,0,8.45.19,16.86.4,25.25.09,3.41.18,6.82.28,10.35-.88,16.19,1.12,32.19.78,48.56" transform="translate(-68.88 -12.81)"/><path class="cls-1" d="M1190.84,200s0,2.66.14,7.34c2,14.65,15,25.65,17,40.65,3,21-16,35-17.29,55.24,0,2.75.09,5.49.21,8.22.52,10.9,1.8,21.66,3,32.61.37,3.31.74,6.64,1.08,10,2,11.89,2,23.89-1.24,35.75" transform="translate(-68.88 -12.81)"/><path class="cls-1" d="M1209,199.81s0,1.18,0,3.36a56.73,56.73,0,0,0,.85,9.71c2.66,15.87,10.58,30.45,8.08,47.12-2,15-10,27-9,41.79,0,2.91,0,5.81,0,8.67-2.08,11.54,4.92,22.54,10,32.41a63.44,63.44,0,0,1,3.08,8.43c3.27,11.48,2.87,23.71-5,33.72" transform="translate(-68.88 -12.81)"/><path class="cls-1" d="M1225.91,199.54c.09,4.46,2.09,9.46,1.27,13.12-.52,3.37-1.07,6.7-1.56,10-4.38,29.75-3.09,58.61,1.7,88a37.93,37.93,0,0,0,1.19,7.84,50.15,50.15,0,0,0,2.58,7.36C1243,343,1253,367,1237,385.1" transform="translate(-68.88 -12.81)"/><path class="cls-1" d="M1241.55,198.69c2.45,8.31,3.45,15.31.77,23.79-.91,3.32-1.74,6.6-2.45,9.87-5.73,26.15-4.37,51.34,5.62,78.12.44,3.06,1.07,6.15,1.82,9.26,5.24,21.75,16.08,44.34,4.79,65.81" transform="translate(-68.88 -12.81)"/><path class="cls-1" d="M1259.18,198.85c4.82,11.15.82,23.15-1.94,33.69-.76,3.29-1.37,6.57-1.85,9.83-3.32,22.89.1,45.42,8.24,68.28q.11,4.75.31,9.53c1,22.3,3.67,44.88,1,66.33" transform="translate(-68.88 -12.81)"/><path class="cls-1" d="M1279.84,199.35a102.79,102.79,0,0,1,1.78,22.12c-.75,3-1.39,5.91-1.93,8.86-4.89,26.48-1.31,52.72,2.12,80.13q0,4.6.14,9.27c.5,21.76,1.87,44.44.58,66.59" transform="translate(-68.88 -12.81)"/><path class="cls-1" d="M996.61,215.87C1018,214,1038,202,1059,202c6,.33,11.44,2.56,16.78,5.24,2.66,1.34,5.3,2.8,8,4.19C1088,213,1091,216,1095,216c32-4,62-3,93.9,1.05h34.37c23.73-.06,46.73-.06,71.11.39h4.27" transform="translate(-68.88 -12.81)"/><path class="cls-1" d="M993.77,235.33c24.18-3.46,48.22-4.8,72.46-2.12,3,.33,6.06.73,9.12,1.19,2.65.6,6.65,1.6,9.65,1.6,36-8,68-8,103-1.19l11.36-.29c18.95-.44,37.91-.44,56.7,1h10.54c10.55,0,21.13.15,31.75.46" transform="translate(-68.88 -12.81)"/><path class="cls-1" d="M991.76,254.67c23.24-1.67,46.24.33,69.13,0h16.37C1113,251,1148,247,1184.06,253.18c3.33-.12,6.66-.26,10-.39,20-.75,40.06-1.15,60.4.08,3.65,0,7.3,0,10.94,0,10.94.13,21.84.61,32.65,1.68" transform="translate(-68.88 -12.81)"/><path class="cls-1" d="M991.38,273.27h41.55c10.53.87,19.55-2.45,28.44-6.6,3-1.39,5.9-2.87,8.89-4.32C1083,255,1099,250,1113,256c17,7,34,17,52.88,17.51,3.3.1,6.63.1,10,0,26.75-.53,54.41-4.89,80.09-1.35,3.51,0,7,0,10.5,0,10.5.06,21,.33,31.43,1" transform="translate(-68.88 -12.81)"/><path class="cls-1" d="M991.59,292.17h11.32l8.4,0c22.48,2.5,42.13-6.37,61.43-17.34,2.76-1.57,5.51-3.18,8.26-4.8,18-14,31,7,44,18,4,4,10,1,13.6,3.17,3.36.42,6.72.72,10.08.95,26.91,1.8,54.09-1.72,81.15-.1,3.24,0,6.52,0,9.81,0,19.69,0,39.4,0,58.95.12" transform="translate(-68.88 -12.81)"/><path class="cls-1" d="M991.4,310.75h5.18C1033,317,1061,288,1093,289c8.67.67,16,11.56,25.87,17.78a27,27,0,0,0,7.94,3.5c28.19-2.28,57.19-3.28,85.13.47h25c15.1.25,29.1.25,44.54,0h17" transform="translate(-68.88 -12.81)"/><path class="cls-1" d="M991.56,329.41h5.18C1010,329,1023,330,1036,327c26-6,49-11,74,2,3,1,6,0,8.66.32,33.34-8.32,66.34-7.32,98.86-.2l10.29,0c23.93-.07,47.51,0,70.76.33" transform="translate(-68.88 -12.81)"/><path class="cls-1" d="M991.37,348h11.32l8.34,0c33-1,66-2,98.72,0,2.88,0,5.78,0,8.71,0q4.88-1.5,9.77-2.66t9.81-2c13-3.26,27-2.26,39.63-2.37q5,.23,10,.69a257.72,257.72,0,0,1,30.41,4.78l9,.07c23.92.29,47.87,1.57,71.65,1.56" transform="translate(-68.88 -12.81)"/><path class="cls-1" d="M991.19,365.38h41c17.81.62,34.81-.38,51.59-5.64,2.94-.68,5.89-1.32,8.85-1.86a87.55,87.55,0,0,1,20.33-1.6,66.27,66.27,0,0,1,7,.71c29,7,59,5,88.37,6.87,2.8.11,5.63.19,8.49.19,3.39-.13,6.79-.21,10.21-.26,23.9-.32,48.25,1.26,71.59,1.59" transform="translate(-68.88 -12.81)"/><path class="cls-1" d="M1298.52,199.79a81,81,0,0,1,.13,14.17v9.94c-.65,24.1-1.65,47.1-.05,70.92,0,2.62,0,5.24.05,7.86v7.79q0,4.3,0,8.52c.33,22,.33,45,0,67.34" transform="translate(-68.88 -12.81)"/><path class="cls-1" d="M991.22,386.14h19.59C1025,386,1039,387,1053,384c20.13-4.37,40.25-19.47,60.38-15.13A32.54,32.54,0,0,1,1122,372c25,29,61,23,93.06,13.31,3.49-.06,7-.07,10.54-.07,24.39-.28,49.39,1.72,73.06.86" transform="translate(-68.88 -12.81)"/><path class="cls-1" d="M88.4,388.59C88,412,90,436,88.88,458.51q0,5.48,0,10.95c-.17,18.24-1,36.43-2.12,54.32.07,3.32.3,6.61.61,9.88,1.26,13.09,3.8,25.93,2.07,39.1" transform="translate(-68.88 -12.81)"/><path class="cls-1" d="M106.7,388.52c.3,22.48-.7,44.48,4.85,66.32.53,3.32,1,6.66,1.36,10C114.75,481.5,114,498,105,514c-1,2,0,5,.52,7.53a47.75,47.75,0,0,0,1.26,6.32c2.77,10.37,8.44,20,11.22,31.15,1,5,0,9-1.19,13.67" transform="translate(-68.88 -12.81)"/><path class="cls-1" d="M124,387.43c1,20.57-6,44.57,9.65,61.48a76.17,76.17,0,0,1,3.31,8.45c6.48,20,3.89,41.24-12.91,56.65-1,2,0,5,.59,7.47a42.7,42.7,0,0,0,2.56,7.08C131.33,537.67,138,545.67,142,555c2,6,1,12-.4,17.51" transform="translate(-68.88 -12.81)"/><path class="cls-1" d="M141.59,386.11c1.41,15.89-.59,30.89,1.63,47,.55,2.1,1.2,4.16,1.92,6.17C148,447.33,152,454.67,156,462c9,19-4,37-13,53-1,3,0,6,.56,9.48a55.28,55.28,0,0,0,4,9.4c6.3,12.36,14.61,24.17,8.88,38.28" transform="translate(-68.88 -12.81)"/><path class="cls-1" d="M159.83,386.26v42.51C170,461,171,492,161.2,523.62a61.12,61.12,0,0,0,2,9.73c3.48,12.88,8.17,25.33,4.9,38.69" transform="translate(-68.88 -12.81)"/><path class="cls-1" d="M178,386.07v102c0,2.89,0,5.77,0,8.61C177,517,186,534,190,553c1,8-3,14-6,20.11" transform="translate(-68.88 -12.81)"/><path class="cls-1" d="M191.24,389.09c.38,8,1.82,15.93,3,24,.41,2.67.8,5.35,1,8.06C196,441,179,456,182,476a67.64,67.64,0,0,0,5,18c1.15,2.88,2.38,5.72,3.68,8.59C199,523,216,537,220,558c1,7-5,12-9.28,17.24" transform="translate(-68.88 -12.81)"/><path class="cls-1" d="M203.23,391a101.52,101.52,0,0,0,4.26,15.46c.86,2.51,1.74,5,2.57,7.51C218,437,190,452,192,475c1,6,4.22,11.11,7.94,16,1.85,2.44,3.83,4.83,5.72,7.24C216,523,250,549,230.48,575.56" transform="translate(-68.88 -12.81)"/><path class="cls-1" d="M217.78,392a58.91,58.91,0,0,0,2.66,7.36c1,2.42,2.19,4.81,3.37,7.2C228,413,231,420,229,426c-12,28-28,53,2,77,2,2,1,5,1.35,6.66C236,532,255,552,244.08,574.74" transform="translate(-68.88 -12.81)"/><path class="cls-1" d="M240.45,389.28c1.77,6.36,4.41,12.79,6.58,19.42.72,2.21,1.37,4.45,1.9,6.75A18.09,18.09,0,0,1,249,430c-6,23-8,44,0,67,2,5,3,10,1.83,14.51,0,2.41,0,4.79,0,7.12v54" transform="translate(-68.88 -12.81)"/><path class="cls-1" d="M266.67,386.73C267,396,269,406,268.79,415.4c.06,2.19.08,4.46.13,6.82-.92,26.78-.92,54.78,0,82v68.54" transform="translate(-68.88 -12.81)"/><path class="cls-1" d="M287.09,386.07s0,2,0,5.49c0,1.77,0,3.92,0,6.42V543.43C287,554,287,565,284.38,575.87" transform="translate(-68.88 -12.81)"/><path class="cls-1" d="M297.11,388C294.52,404.67,301,420,304,435.73a78.34,78.34,0,0,1,1.27,9.54C306,463,290,474,284,489c-7,17,9,29,17,42a57.94,57.94,0,0,1,2.78,6.15C306,552,303,567,297.42,581.41" transform="translate(-68.88 -12.81)"/><path class="cls-1" d="M308,389.81C306,404,314,417,320,430a71.9,71.9,0,0,1,2.69,7.51C323,443,324,450,320,454c-20.7,25.2-30.06,48.78-6.94,71.47A82.78,82.78,0,0,0,322,533c4,17-3,33-6.3,48.52" transform="translate(-68.88 -12.81)"/><path class="cls-1" d="M322.64,391c.36,3-1.64,5-.64,8,2.67,11.33,10.67,20,15.6,29.93a38.81,38.81,0,0,1,2.95,7.75C344,460,322,476,322,497c1,14,17,21,19.1,36.34a74.41,74.41,0,0,1,.45,10.85C340,555,341,566,338.35,576" transform="translate(-68.88 -12.81)"/><path class="cls-1" d="M348.8,389.08C347,405,358,418,360,433c0,4,0,8-.24,12.08a224.4,224.4,0,0,0,.08,87.94v11c-.84,10,1.16,19-.38,28.78" transform="translate(-68.88 -12.81)"/><path class="cls-1" d="M70.32,405.23C99,411,127,404,155.58,403.7H163C201,407,239,406,277.21,404c3.32.19,6.58.43,9.83.69,9.71.79,19.46,1.79,29,2.29,20,3,39-2,58.95-2.94" transform="translate(-68.88 -12.81)"/><path class="cls-1" d="M69.89,423.31C96,428,122,423,148.43,422.27h22.38c3.22.18,6.44.31,9.65.42,28.54.31,57.54.31,86.27-.41,3.64.07,7.27.15,10.91.24,32.75.83,66,2.21,98.72-.23" transform="translate(-68.88 -12.81)"/><path class="cls-1" d="M69.9,441.43C92,446,114,443,136.49,441.85c3.34,0,6.71,0,10.08.14,16.88.47,33.69,1.1,50.31,1.88q5.28,0,10.56,0c24.62-.32,49.21-2.27,73.93-2.88l6.76,0h26.66c14.21.06,28.21.06,42.33,0H376.7" transform="translate(-68.88 -12.81)"/><path class="cls-1" d="M70,460.86c26,4.14,52,3.14,78.17,2,3.3.12,6.6.2,9.9.22s6.6,0,9.9-.1c11,0,22,5,33.94,4.22,3.26-.06,6.56-.22,9.86-.47,26.42-1.94,52.88-9.09,79.61-6.47l10.58.2c24.74.41,49.69.49,74.44-1" transform="translate(-68.88 -12.81)"/><path class="cls-1" d="M70.15,479.74C95,484,120,484,145.38,482.49c3.12.14,6.25.34,9.37.54,18.75,1.22,37.5,2.72,56.25,2q4.5-.75,9-1.44c21-3.21,42-5.11,63-2q5,.66,10,1.41c28,4,55-3,83.1-4.5" transform="translate(-68.88 -12.81)"/><path class="cls-1" d="M69.57,497.34C93,501,117,498,139.94,499.1c3.64.09,7.27.18,10.9.25,18.16.36,36.26.34,54.19-.6l10.11-.26c16.86-.43,33.77-.74,50.85.51,3.71.9,7.4,1.61,11.08,2.16,33.14,4.93,65.63-3.25,98.89-4.09" transform="translate(-68.88 -12.81)"/><path class="cls-1" d="M69.64,515.67h5.62c14.74.33,30.74.33,45.26.16l9.32,0q32.63.14,65.1-.19h9.74c19.47,0,38.89.24,58.3,1.26,3.45.12,6.9.22,10.36.32,34.55,1,69.28.78,103.32-1.6" transform="translate(-68.88 -12.81)"/><path class="cls-1" d="M69.45,534.24h7.46C117,534,157,534,196.68,535.78c3.44.08,6.89.16,10.34.22,24.15.44,48.32.37,72.66-1.25l9.62,0,9.65,0,9.64,0c10.41.21,19.41.21,28.94-.23l9.69-.15,9.71-.17H376.5" transform="translate(-68.88 -12.81)"/><path class="cls-1" d="M69.29,551.63C115,553,161,548,206.4,554.91c3.4.24,6.8.43,10.2.54A167.41,167.41,0,0,0,237,555c16-1,32-4,48.24-2.92,3.33.13,6.74.24,10.16.32,20.52.51,41.27.26,61.29-.76h19.63" transform="translate(-68.88 -12.81)"/><path class="cls-1" d="M374.3,386.59C374,401,376,415,376.68,429.33c0,2.5,0,5.08.05,7.71v7c0,2.38,0,4.8,0,7.24-1.7,24.7-.7,49.7,0,74.22v6.59c0,3.93,0,7.68-.06,11.19a97.28,97.28,0,0,1-2.8,26.47" transform="translate(-68.88 -12.81)"/><path class="cls-1" d="M69.33,572.39C115,572,160,571,205.6,574.41c3.44.14,6.89.27,10.33.36,17.24.49,34.57.31,52.07-1.77,5-1,11,2,15.77,3,2.74.92,5.52,1.9,8.32,2.8,8.41,2.7,16.91,4.7,25.91,2.2,3-.83,6-1.64,9-2.4s6-1.48,9-2.14c13-.46,25-7.46,37.94-6.84" transform="translate(-68.88 -12.81)"/><path class="cls-1" d="M394,386.53c0,10.47,0,19.47.05,29.14V530.85c0,4.08,0,8,0,11.63C395,551,393,560,389.83,569.29" transform="translate(-68.88 -12.81)"/><path class="cls-1" d="M412.28,386.34v25.93C412,435,412,457,412.28,479.6c-.13,3.13-.22,6.28-.29,9.43-.38,17.72.09,35.57.43,53.2.06,3.52.12,7,.14,10.54C411,559,413,566,409.39,571.16" transform="translate(-68.88 -12.81)"/><path class="cls-1" d="M430.35,386.53q-.44,4.53-.76,9t-.54,9.07C428,437,430,469,430.25,501.24c.08,3.6.17,7.24.27,10.88.42,16.38.75,32.75.58,49.27,0,2.76-.08,5.51-.25,8.23a43.39,43.39,0,0,1-1.29,7.75" transform="translate(-68.88 -12.81)"/><path class="cls-1" d="M448.15,386.71C438,429,449,472,449.11,514.63c.09,3.13.15,6.27.2,9.4.24,15.68,0,31.38-.54,47-.11,3.12-.23,6.24-.38,9.35" transform="translate(-68.88 -12.81)"/><path class="cls-1" d="M466.14,387.06C454,428,467,470,467.35,511.73q0,5.47-.07,11c-.27,18.38-1.26,37-1.23,55.68" transform="translate(-68.88 -12.81)"/><path class="cls-1" d="M484.77,386.44q-.86,4.59-1.47,9.21a242.28,242.28,0,0,0-1.71,31.05c0,3.46.09,6.92.23,10.39C482,458,485,478,485.27,499.14c0,3.49,0,7,0,10.6-.14,21.34-1.26,42.58-1.24,64.52" transform="translate(-68.88 -12.81)"/><path class="cls-1" d="M503.08,386.53s0,2.91,0,8c0,3.41,0,6.78,0,10.12s0,6.65,0,9.94c6,31.4,4,62.4.06,94.46,0,2.5,0,5,0,7.41V573" transform="translate(-68.88 -12.81)"/><path class="cls-1" d="M521.27,386.34V406.7C521,424,527,439,531,455c5,20-10,36-9.71,56.48,0,2.26,0,4.5,0,6.7v18.7q0,3.54,0,6.82C520,554,523,563,521.78,573.14" transform="translate(-68.88 -12.81)"/><path class="cls-1" d="M539.62,386.53V409.4C544,441,555,472,540,504c-1,3,0,7-.34,11,0,2.38,0,4.72,0,7,0,2.63,0,5.2.07,7.71C539,546,544,563,543.4,578.85" transform="translate(-68.88 -12.81)"/><path class="cls-1" d="M557.82,386.34v8c0,2.78,0,5.56.07,8.36s0,5.59.05,8.41C562,446,563,480,557.82,514.86v6.36C556,543,564,563,564.35,585.22" transform="translate(-68.88 -12.81)"/><path class="cls-1" d="M576,386.81c3,28.19,2,56.19-.06,84.24,0,2.9,0,5.82,0,8.73v40.7C575,542,581,563,581.14,583.84" transform="translate(-68.88 -12.81)"/><path class="cls-1" d="M594.9,387.72C596,407,603,425,605,444c1,15-12,28-10.9,44.33,0,2.89,0,5.79,0,8.65v35.39c-.18,2.44-.25,4.92-.24,7.42s.11,5,.26,7.57C594,557,597,568,596.2,577.61" transform="translate(-68.88 -12.81)"/><path class="cls-1" d="M613.33,388.25C613,415,632,434,639,458c1,4-3,7-6,10-13,9-22,22-20.66,37.7v16.37c0,2.63,0,5.2,0,7.71C613,544,614,559,614.73,573.29" transform="translate(-68.88 -12.81)"/><path class="cls-1" d="M630.79,386.79C627,418,651,437,667,461c0,2-1,4-2,6-11,14-34,19-34.28,38.53-.15,2.8-.18,5.57-.18,8.3C629,536,637,555,642,576.13" transform="translate(-68.88 -12.81)"/><path class="cls-1" d="M648.61,386.53s0,2.91,0,8C644,422,664,441,683,457c5,4,7,10,2,15-14,13-37,20-36.35,42,0,2.73,0,5.42,0,8.05C647,542,662,559,665.53,578.28" transform="translate(-68.88 -12.81)"/><path class="cls-1" d="M666.81,386.34V521.88C665,541,677,558,679.59,577.09" transform="translate(-68.88 -12.81)"/><path class="cls-1" d="M374.88,404.33C385,404,394,404,404.41,404h11.08a193.43,193.43,0,0,0,71.39,2.2c3-.34,6-.67,8.94-1s6-.73,8.93-1.13c2.9,0,5.77,0,8.69,0h34.41C570,402,591,411,613,414c15,1,26-11,41-10h29.7" transform="translate(-68.88 -12.81)"/><path class="cls-1" d="M376.29,422.56h27.93C423,424,438,438,457,439c8,.5,15.25-2,22.25-5.37,2.34-1.12,4.65-2.34,7-3.58C514,418,548,421,577.47,425.88c3.14,1,6.26,2.11,9.36,3.31C599.25,434,611.5,440,625,443c16,4,21-10,32-17,8-6,18-3,26.89-3.44" transform="translate(-68.88 -12.81)"/><path class="cls-1" d="M376.62,441.21h23.16a46.09,46.09,0,0,1,10,.5c15.14,3.22,28.49,18.08,43.5,20.68A24.63,24.63,0,0,0,469,460c34-26,80-18,119.22-12.75,3.13.93,6.31,1.94,9.51,3C626.56,459.5,657.5,470.75,680,446c3-4,11-4,17-4" transform="translate(-68.88 -12.81)"/><path class="cls-1" d="M376.34,459.79h24.82c3.28.33,6.57.64,9.87,1,17.38,6.72,35.49,11.57,53.47,10.48a79.31,79.31,0,0,0,9-1C484,468,494,463,504,462c21-2,42,3,64,0,6-1,13,0,19.39,1.66,3.67.6,7.38,1.2,11.08,1.77,40.77,6.24,81.47,9,121.6-4.2" transform="translate(-68.88 -12.81)"/><path class="cls-1" d="M376,478.77c6,.23,12,.23,17.94-.08h12.38c22.17,2.32,44,5,66.2,3.87,3.18-.16,6.38-.4,9.63-.72C489,480,497,479,504,480c30,2,60-1,89.54-1.31h90.15" transform="translate(-68.88 -12.81)"/><path class="cls-1" d="M375.88,497.34C383,497,389,497,396,497.27c3.08,0,6.46,0,10.13,0,26.87,5.13,53.05,3.21,79.76.79l9-.81c29.15.72,59.15.72,87.85,0H683.5" transform="translate(-68.88 -12.81)"/><path class="cls-1" d="M376.58,515.93h19.59C412,515,425,523,439,530c5,2,10,3,15,2,16-7,31-19,49.68-16.06h180" transform="translate(-68.88 -12.81)"/><path class="cls-1" d="M376.42,534.51h11.33C399,533,409,536,419,541c11,7,22,19,35,14,22-10,41-25,67.07-20.49H530c21,.49,43,.49,64,0h7.47c26.58.49,54.58.49,82.06,0" transform="translate(-68.88 -12.81)"/><path class="cls-1" d="M375.9,551.77a96,96,0,0,1,54,10.79C433,564,436,565.5,439,567c5,2,10,2,14,0,16.25-5,31.33-11.56,47.13-14.58a92.39,92.39,0,0,1,9.58-1.35c23.3,1.35,46,5.19,68.32,4.59,3.19-.08,6.37-.25,9.55-.54C595,555,601,552,607,552c26-1,53,6,78.86,1" transform="translate(-68.88 -12.81)"/><path class="cls-1" d="M683.7,386.34V529.59C682,545,689,560,690.08,575.17" transform="translate(-68.88 -12.81)"/><path class="cls-1" d="M373.45,569.88C396,566,418,573,440.69,572.66H503.5l8.89,0c24.93,5.15,48.08,12.09,71.5,9.51A84.7,84.7,0,0,0,594,580.44C620,569,647,579,674,578c5-1,11-2,16.07-3" transform="translate(-68.88 -12.81)"/><path class="cls-1" d="M89.61,572.44C88,582,88,592,87.31,601.59c0,2.19,0,4.46-.06,6.82v14.35c0,3.15,0,6.32.08,9.49C93,665,100,698,91.19,730.68c-.25,2.53-.55,5.05-.92,7.58a149.57,149.57,0,0,1-3,15.2V759" transform="translate(-68.88 -12.81)"/><path class="cls-1" d="M117.14,572.35c-4.28,11.38-10.55,23-11.68,35.53a41.47,41.47,0,0,0,0,7.64c-.07,3.41,0,6.81.12,10.2s.41,6.77.89,10.14C109,664,127,692,122.41,719.71a31.2,31.2,0,0,1-3.41,9.21,41.12,41.12,0,0,1-7,9.08c-5,6-5,14-6.54,20.77" transform="translate(-68.88 -12.81)"/><path class="cls-1" d="M141.86,572.19C137,584.53,126.44,594.92,124,607.71a27.75,27.75,0,0,0-.41,8q.36,4.85.93,9.58c.37,3.17.8,6.3,1.28,9.41C130,660,137,683,145,707a20.88,20.88,0,0,1,.93,9,28.39,28.39,0,0,1-2.46,8.68,53.61,53.61,0,0,1-5,8.24C132.7,741,125.39,749,123.79,759" transform="translate(-68.88 -12.81)"/><path class="cls-1" d="M156.58,571.84c-3.82,12.63-12.09,23.77-14.33,36.1a33.41,33.41,0,0,0-.53,7.57C144,645,151,672,157,701c1,6,1,13-.72,18.85a76,76,0,0,1-2,10c-2.7,9.92-7.25,19.66-12.06,28.94" transform="translate(-68.88 -12.81)"/><path class="cls-1" d="M168.26,571.71C165,584,161,596,160.07,608.38c-.1,3.9-.1,8-.1,12.24q1.22,10.3,1.93,20.48.38,5.08.61,10.15c.49,9.75.49,20.75.37,30.26-.09,3.35-.21,6.71-.37,10.06-.48,10.07-1.33,20.16-2.54,30.34v37" transform="translate(-68.88 -12.81)"/><path class="cls-1" d="M184.34,572.83C180,582,177,591,178.17,601.4v13.79C179,646,179,677,178.8,707.5q.06,4.61.11,9.19c.11,12.25,0,24.47-.74,36.58v5.49" transform="translate(-68.88 -12.81)"/><path class="cls-1" d="M211.17,575c-6.13,5.26-11,11.64-13.42,19a31.73,31.73,0,0,0-1.49,7.64C203,641,200,681,199.18,720.37c.11,3.26.16,6.53.14,9.79a157.8,157.8,0,0,1-2.66,29.33" transform="translate(-68.88 -12.81)"/><path class="cls-1" d="M230.8,575.27c-2,2.43-3.91,4.88-5.77,7.39a80.32,80.32,0,0,0-5.13,7.78C219,595,215,598,215,603c7,38,5,74,4.26,110.93.18,3.06.38,6.07.52,9.07s.22,6,.22,9c1,10-3,19-4.25,28.65" transform="translate(-68.88 -12.81)"/><path class="cls-1" d="M244.3,574.43c-1.08,2.64-2.32,5.31-3.58,8s-2.55,5.47-3.71,8.28c-3,4.27-4,9.27-3,13.27,4,35,1,69,2.29,103.51.27,3,.58,5.92.88,8.82s.58,5.8.83,8.67c1,12-2,24-4,35.6" transform="translate(-68.88 -12.81)"/><path class="cls-1" d="M251,572.26v32C253,637,251,670,252,703.12c.18,3.12.36,6.24.52,9.35.8,15.58,1.15,31.13-1.14,46.72" transform="translate(-68.88 -12.81)"/><path class="cls-1" d="M269.05,572.44V657c0,2.93.05,5.86.09,8.81C269,687,269,709,269.08,729.86c0,4.32,0,8.33,0,11.88V759" transform="translate(-68.88 -12.81)"/><path class="cls-1" d="M284.6,575.49c-11.62,19.26-11.19,39.73-6.11,59.89.73,2.88,1.55,5.75,2.44,8.62C294,679,294,717,287.29,752.58c0,3.95,0,6.18,0,6.18" transform="translate(-68.88 -12.81)"/><path class="cls-1" d="M297.74,581c-11.71,15-12.59,30-7.69,45a80.29,80.29,0,0,0,3.59,9c2.36,7,8.36,12,9.36,19,5,22,11,40,22,59,1,2,0,5,0,7-4,14-19,23-19.32,39" transform="translate(-68.88 -12.81)"/><path class="cls-1" d="M316,581c-4,12-13,23-8,35,2.5,7,6.5,13.25,9.83,19.72a71.34,71.34,0,0,1,3,6.6C321,670,337,691,348,716c8,17-18,26-23.05,43" transform="translate(-68.88 -12.81)"/><path class="cls-1" d="M338.57,575.59C332,600,343,624,341.78,648.3c0,2.87,0,5.76,0,8.69.21,5-1.79,11,1.21,16,16,30,28,59,.84,86" transform="translate(-68.88 -12.81)"/><path class="cls-1" d="M359.62,572.42C358,587,361,601,359.93,615.51c0,2.5,0,5.08,0,7.71V758.76" transform="translate(-68.88 -12.81)"/><path class="cls-1" d="M69.81,589.89H76.1c38.9.11,77.9,1.11,116.72.53,3.73-.09,7.48-.22,11.23-.34,22.52-.76,45-1.48,66,3.92a42.19,42.19,0,0,0,9.1,6.56c15.56,8.27,32.34,4,48.63-1.36,3.25-1.07,6.49-2.18,9.67-3.25,10.53-4,20.53-10,32.89-12" transform="translate(-68.88 -12.81)"/><path class="cls-1" d="M69.62,608.46H89.35c27.65-.46,54.65-.46,82.35,0h15C214,610,244,600,267.65,615.83a67.68,67.68,0,0,0,9.53,3.09c19,4.62,37.35.31,55.94-4.19,3.54-.86,7.08-1.72,10.58-2.6,9.3-3.13,17.3-7.13,25-10.72" transform="translate(-68.88 -12.81)"/><path class="cls-1" d="M69.78,627.13H85.57c25.43.87,50.43,1.87,75.19,0h7.37C203,623,237,618,271.48,631.21q4.72.9,9.42,1.42c18.77,2.13,37.21.06,55.59-3.33q5.25-1,10.5-2c9,.75,17-2.25,25.28-4.14" transform="translate(-68.88 -12.81)"/><path class="cls-1" d="M70,645.7c24,1.3,47,4.3,71,3.22q4.84-.06,9.69-.26,5.53-.21,11.07-.61C184,646,203,633,225,635c17,2,32,13,50.32,10.7l9.87.13c16.48.16,33.17.12,49.95-.13h24.19c5.67.3,10.67,1.3,17-.26" transform="translate(-68.88 -12.81)"/><path class="cls-1" d="M72.08,664.6C79,665,85,664,92,665c20,3,39,10,59.5,4.72,2.84-.5,5.67-1.06,8.51-1.61C182,664,202,649,225,653c15,2,27,12,42.32,11.84q4.41.2,8.82.44c23.51,1.31,46.9,3.66,71-.6,3.64-.07,7-.07,10.1-.07h19.57" transform="translate(-68.88 -12.81)"/><path class="cls-1" d="M72.77,683.39C98,686,124,693,150,688.23c2.67-.33,5.34-.7,8-1.07,33-6.16,67,2.84,100.33-3.92,3.46.49,6.9,1,10.32,1.66,30.76,5.58,59.74,15.3,90.34-.9,5-3,12-1,18.13-.78" transform="translate(-68.88 -12.81)"/><path class="cls-1" d="M71.93,702.49C95,705,117,711,140.34,707.17c3.4-.33,6.78-.71,10.16-1.1s6.75-.79,10.11-1.15,6.72-.71,10.07-1C187,701,200,714,215,718a23.27,23.27,0,0,0,7.27.77C234,718.17,244.17,709,255,704c4-2,8-1,12.33-.73,2.94.57,5.88,1.27,8.82,2C299.68,711.44,323.2,722,348,714c11-3,20-15,32.56-12.11" transform="translate(-68.88 -12.81)"/><path class="cls-1" d="M70,720.79c17,1.21,33,4.21,50.48,3.56q5,0,10.05-.05A319.74,319.74,0,0,0,171,721c12-1,22,8,32.71,10.86a79.77,79.77,0,0,0,7.82,2.21A46.79,46.79,0,0,0,228,735c17-2,31-19,49.19-12.65,3.44.64,6.9,1.31,10.37,2C315.32,729.68,343.8,734.8,371,722c4-2,8-1,11.51-1.57" transform="translate(-68.88 -12.81)"/><path class="cls-1" d="M69.41,737.82C105,741,142,738,178,738a37.48,37.48,0,0,1,14.89,3.1c2.58.65,5.16,1.34,7.75,2C211,745.75,221.5,748,233,746c14-3,27-9,42.2-8.11q5.22.61,10.47,1.08c31.52,2.81,63.79,1.71,94.95-1.19" transform="translate(-68.88 -12.81)"/><path class="cls-1" d="M374.06,569.5C366,591,370,615,375,638c2,6,3,13,1.86,18.78v102" transform="translate(-68.88 -12.81)"/><line class="cls-1" x1="0.55" y1="745.77" x2="307.98" y2="745.77"/><path class="cls-1" d="M390.07,569.06C366,598,394,632,394.07,663.53q0,4.77,0,9.52,0,9.5.12,18.84v67.33" transform="translate(-68.88 -12.81)"/><path class="cls-1" d="M409.54,570.31C405,578,397,585,396,594c-4,25,18,44,18.24,68.77.24,3.43.35,6.8.42,10.16.4,16.76.08,33.45-2.24,50.14v36" transform="translate(-68.88 -12.81)"/><path class="cls-1" d="M430.18,572.59C419,594,417,616,430,638c5,8,6,17,7.52,26.49.5,3.07,1,6.15,1.39,9.24s.79,6.17,1.09,9.27c1,16-11,30-9.5,47.07,0,4.38,0,8.39,0,11.94v17.21" transform="translate(-68.88 -12.81)"/><path class="cls-1" d="M448.69,572.52s0,2.92-.06,8C445,604,447,628,453.05,651.14c.77,3.37,1.62,6.71,2.61,10s2.09,6.59,3.34,9.84c8,20-10,38-10.24,58.85-.07,4.41-.07,8.42-.07,12V759" transform="translate(-68.88 -12.81)"/><path class="cls-1" d="M466.94,572.72v29.16c.06,10.12-.94,19.12.59,28.66.31,3.12.68,6.22,1.09,9.32,1.63,12.39,3.88,24.64,5.38,37.14,3,18-7,35-7,53.08,0,4.37,0,8.38,0,11.93v17.21" transform="translate(-68.88 -12.81)"/><path class="cls-1" d="M485.14,572.53v59c.17,6.09.47,12.21.8,18.33s.68,12.26,1,18.39.52,12.26.58,18.37,0,12.22-.4,18.3a180.79,180.79,0,0,1-1.93,18.14c0,2.36,0,4.63,0,6.82V759" transform="translate(-68.88 -12.81)"/><path class="cls-1" d="M503.21,572.71v59C503,657,505,683,503.32,708.26c0,2.62-.06,5.2-.11,7.7v43.26" transform="translate(-68.88 -12.81)"/><path class="cls-1" d="M521.93,572.83c.07,12.17.07,23.17-.51,35.65q0,3.54,0,7.3c0,3.94,0,8,.09,12.27,1.5,30,13.5,59,1.5,89-2,4-1,9-1.58,13.82,0,3.39,0,6.56,0,9.45V759" transform="translate(-68.88 -12.81)"/><path class="cls-1" d="M543.56,578.55c-.28,10.23-1.42,20.34-2.4,30.53-.32,3.39-.63,6.8-.88,10.21C539,630,541,640,543,651c5,17,17,35,9,52-6,13-13,27-12.24,42.08v14.14" transform="translate(-68.88 -12.81)"/><path class="cls-1" d="M564.48,584.86c-.3,13.21-3.93,26.37-5.89,39.6-.37,2.65-.68,5.3-.79,8C566,668,576,702,559,738c-2,4-1,10-1,15.16V759" transform="translate(-68.88 -12.81)"/><path class="cls-1" d="M581.25,583.42c.56,16.19-3.8,32.61-5.16,48.91-.22,2.71-.37,5.43-.37,8.18C584,677,582,711,576,746.52c0,2.65,0,5,0,6.83v5.87" transform="translate(-68.88 -12.81)"/><path class="cls-1" d="M596.3,577.2c-.3,4.8-.3,10.8-.08,15.63-.09,2.61-.21,5.22-.34,7.84-.68,13.06-1.8,26.16-1.67,39.22,0,2.78,0,5.62,0,8.49-.22,10.62-.22,20.62,0,31.34V759" transform="translate(-68.88 -12.81)"/><path class="cls-1" d="M614.91,573c-.91,14-.91,29-2.41,43q0,3.76,0,7.71C614,653,615,683,612.48,712.16v47.06" transform="translate(-68.88 -12.81)"/><path class="cls-1" d="M642.2,575.83c-.13,12.78-6.84,24.6-10.21,36.84a50.19,50.19,0,0,0-1.74,9.29C630,642,643,660,639,681c-2,13-9,25-8.33,38.48V759" transform="translate(-68.88 -12.81)"/><path class="cls-1" d="M665.64,578c-.64,4,.36,8-1.64,12-3.5,6.5-7.5,13-10.53,19.84a67.51,67.51,0,0,0-2.66,7C650,619,649,622,649,624c0,21,20,38,15,60-4,16-18,29-15.25,46.62v28.6" transform="translate(-68.88 -12.81)"/><path class="cls-1" d="M679.65,576.75C681,591,673,603,669,616c-.5,2.5-1,5.25-1.35,8a36,36,0,0,0,.2,8.37,55,55,0,0,0,1.82,8.15C673,651,678,662,680,673a36.4,36.4,0,0,1,0,10.06c-2.18,16.12-13.85,29.51-13,47.37,0,3.44,0,6.64,0,9.57v19" transform="translate(-68.88 -12.81)"/><path class="cls-1" d="M370.26,584.15C379,582,387,580,396,581c24,4,46,11,69.95,9.15h46.73c26.12,6.9,51.11,10.93,76.42,8q5.43-.63,10.94-1.7c9-.42,17-5.42,26-5.42,21,2,42,5,63.43,1.11" transform="translate(-68.88 -12.81)"/><path class="cls-1" d="M368.64,601.72C377,596,387,594,396,597c25,6,49,14,75,11.8,2.63,0,5.29,0,8-.07h33.47C518,609,524,608,530,610c21.7,6.3,42.91,4.27,64.23,1.71,3-.37,6.09-.75,9.14-1.11C631,606,658,613,685.9,609.33" transform="translate(-68.88 -12.81)"/><path class="cls-1" d="M372.29,623.46C376,622,380,620,383,621c31,7,59,24,88.68,7.83A52.4,52.4,0,0,1,479,627.5a39.08,39.08,0,0,1,7.58-.08l8.59,0h29.26c9.61-.4,19.61-.4,29.43,0h68.1c17.57-.33,34.38-.39,51.54-.17,3.46,0,6.92.1,10.45.17" transform="translate(-68.88 -12.81)"/><path class="cls-1" d="M376.3,645.73C398,640,416,658,435,665a22.64,22.64,0,0,0,8.46,1.65c13.29-.07,22.87-13,34.54-19.65a14.08,14.08,0,0,1,8.12-1.63c2.87.12,5.85.62,8.83.61,29.05,0,59.05,4,87.9,0h7.49c22.16-1.38,44.49,1.64,66.82,2.29q4.77.15,9.56.12c7.28-.38,13.28.62,20-1" transform="translate(-68.88 -12.81)"/><path class="cls-1" d="M376.77,664.88h11.32C414,666,436,692,462,680c6.5-3.5,12.75-8,19.48-11.27a51.2,51.2,0,0,1,7-2.77C514,660,538,678,565,673c7.5-.75,13.88-3.75,20.81-6a62.12,62.12,0,0,1,7.19-2c23-1,45,3,68,6,2.5.25,5,.44,7.49.52s5,.06,7.47-.1c5-1.42,10-.42,15.46-3" transform="translate(-68.88 -12.81)"/><path class="cls-1" d="M376.58,683.45H387.9C414,685,439,699,464,691a198.3,198.3,0,0,1,23.68-6.19c2.72-.48,5.46-.87,8.33-1.13C519,682,539,697,562,696c8.5,0,16.25-3.25,24.17-6.44,2.64-1.07,5.29-2.12,8-3C599,683,606,684,612,684c22.75-.87,46.27,6.67,68.87,4.61a72.41,72.41,0,0,0,9.66-1.53" transform="translate(-68.88 -12.81)"/><path class="cls-1" d="M376.75,702.12H495.21C515,700,533,709,553,711c6,0,11,1,17,0,10-2.67,19.56-5.78,29.4-7.52,2.46-.43,4.94-.78,7.46-1C634,701,660,708,687.09,703.88" transform="translate(-68.88 -12.81)"/><path class="cls-1" d="M376.56,720.69H512.4c33.6,3.31,67.6,2.31,101.89,0h69.32" transform="translate(-68.88 -12.81)"/><line class="cls-1" x1="307.5" y1="725.28" x2="614.55" y2="725.28"/><path class="cls-1" d="M690.15,574.83c.59,13.31-3.09,26.54-5.11,39.59-.4,2.61-.72,5.22-.93,7.81C683,639,689,654,692,671c0,5,1,9-.92,14-.38,2.5-.84,5-1.36,7.5-2.53,12.51-6.57,25.07-5.83,37.94,0,3.43,0,6.64,0,9.57v19" transform="translate(-68.88 -12.81)"/><line class="cls-1" x1="307.52" y1="746.04" x2="614.95" y2="746.04"/><path class="cls-1" d="M701.76,386.64v93.25C702,501,702,523,701.76,544v29.14" transform="translate(-68.88 -12.81)"/><path class="cls-1" d="M720,386.45v75.86q0,4.31,0,8.66c1,28,5,57,.15,84.88-.17,3.45-.19,6.54-.19,9.09v8" transform="translate(-68.88 -12.81)"/><path class="cls-1" d="M738,386.64v8c0,2.55,0,5.64,0,9.19,0,17.16,0,33.16,0,50.12,0,2.81,0,5.66,0,8.53a99.5,99.5,0,0,0,5.38,37.45c1,3,2.16,6.05,3.45,9.05,8.14,11,5.14,24,0,35-1.11,2.37-2.25,4.71-3.34,7-3.24,7-6,14.05-5.47,22.12" transform="translate(-68.88 -12.81)"/><path class="cls-1" d="M756.54,386.18c5.17,24.66,1.72,50.07.25,75-.18,3.12-.33,6.22-.37,9.36a32.75,32.75,0,0,0,.47,10.19A44.26,44.26,0,0,0,760,490c25,24,28,51-1,73-2,3-1,7-2.55,10" transform="translate(-68.88 -12.81)"/><path class="cls-1" d="M779.55,381.7C784,387,788,393,788,399c0,24.5-12.25,46.7-13.59,70.51a65.9,65.9,0,0,0,.21,10.39C775,484,775,488,777,489c40,28,21,56-2,84.16" transform="translate(-68.88 -12.81)"/><path class="cls-1" d="M805.07,365.45C817,372,816,388,812,400c-6.12,23.63-18.37,45.72-19.5,69.41a65.26,65.26,0,0,0,.28,10.25C815,510,818,544,793.05,572.93" transform="translate(-68.88 -12.81)"/><path class="cls-1" d="M822.64,349.49C828,363,830,378,826,394c-5.4,27-16.47,50.76-15.89,77a59.25,59.25,0,0,0,.79,8.84C824,511,823,542,810.84,573.12" transform="translate(-68.88 -12.81)"/><path class="cls-1" d="M837.32,359.45C843,388,831,416,829,445.4c0,2.78,0,5.56,0,8.38v20.46c3,19.76,5,38.76,4.22,59.16,0,3.3-.16,6.59-.34,9.89s-.44,6.59-.78,9.89-.76,6.59-1.27,9.88-1,6.57-1.6,9.81" transform="translate(-68.88 -12.81)"/><path class="cls-1" d="M847.3,386.64V460c2.7,28,3.7,56,.07,83.95-.07,4.38-.07,8.39-.07,11.94.7,5.07.7,11.07,2.6,16.55" transform="translate(-68.88 -12.81)"/><path class="cls-1" d="M865.5,386.45a163.22,163.22,0,0,0,0,22v30.07C864,456,873,468,876,484c6,25-12,47-10.45,71.74a22.92,22.92,0,0,0,2.33,8.49,33.21,33.21,0,0,0,4.64,6.9" transform="translate(-68.88 -12.81)"/><path class="cls-1" d="M885.58,386.67C884,401,884,416,883.57,429.89a26.29,26.29,0,0,0-.26,10c2.63,15,19,22.8,25.69,36.13,2,4,0,9-2,13-11,20-24,41-22.5,63.73a14,14,0,0,0,3.33,6,16,16,0,0,0,6.75,4" transform="translate(-68.88 -12.81)"/><path class="cls-1" d="M913.3,385.94C913,403,898,417,903,434.67a30.2,30.2,0,0,0,3.82,7.4c6.36,9.26,16.81,16.6,20.14,27.93,2,8-2,16-6,23-11,16-18,32-17.51,51.15a18.3,18.3,0,0,0,2.81,6.7,19.72,19.72,0,0,0,5.41,5.36" transform="translate(-68.88 -12.81)"/><path class="cls-1" d="M947.1,381.87C941,400,920,412,922.09,433a48.85,48.85,0,0,0,3.39,6.79c6.41,11,15,21,12.52,35.21-4,22-21,39-18,62.16,0,2.38,0,4.65,0,6.84v29.14" transform="translate(-68.88 -12.81)"/><path class="cls-1" d="M967,379.78C960,400,938,414,938.22,437.41V573" transform="translate(-68.88 -12.81)"/><path class="cls-1" d="M977.6,380.53C972,401,954,416,956.29,437.6V573.14" transform="translate(-68.88 -12.81)"/><path class="cls-1" d="M974.49,386.44V471c.06,2.9.08,5.81.11,8.73.4,21.3.4,43.3,0,64.11,0,4.37-.06,8.38-.07,11.93V573" transform="translate(-68.88 -12.81)"/><path class="cls-1" d="M684.32,404.08h48l6.85,0C771,404,794,380,823,372c7-2,11,12,17,20a28.23,28.23,0,0,0,15,10.51,41,41,0,0,0,8.91,1.62C907,408,950,396,993.21,403.44" transform="translate(-68.88 -12.81)"/><path class="cls-1" d="M684.13,422.65h41.51C758,425,785,398,814,400c13,1,21,27,41.34,22.65h25.37c35.29.35,70.29-1.65,105.72,0h4.76" transform="translate(-68.88 -12.81)"/><path class="cls-1" d="M684.3,441.32h41.51C751,444,774,429,799,431c13,1,25,12,38.85,10.31h153.5" transform="translate(-68.88 -12.81)"/><path class="cls-1" d="M684.11,459.89h54.81C766,459,793,456,820,459.82c2.92,0,5.85.05,8.77.07h25.61C878,459,901,451,926,453c20,3,40,7,60.34,6.89h4.82" transform="translate(-68.88 -12.81)"/><path class="cls-1" d="M684.31,478.8h26.13c22.56.2,44.56.2,67.32.13l7.88-.13c12.8.17,26,.19,38.75.08l7.55-.08C840,480,847,479,855,477c24-4,47-17,71-11,12.5,3.75,24.61,8.67,37.29,11.3,2.54.52,5.11,1,7.71,1.27,7-.57,15,1.43,21.52-.13" transform="translate(-68.88 -12.81)"/><path class="cls-1" d="M684.12,497.37h11.32c2.42,0,5.2,0,8.32,0a215.5,215.5,0,0,0,31.48,3.15c3.48.11,7,.15,10.42.14,21.81-.42,43.49-2,65.14-2.94,3.61-.15,7.22-.29,10.83-.4C852,501,877,486,907,480c17-4,24,10,37,15a46.93,46.93,0,0,0,9.15,2,83.47,83.47,0,0,0,9.35.54c11.5-.55,22.5.45,33.94-2.17" transform="translate(-68.88 -12.81)"/><path class="cls-1" d="M684.29,516h11.33c13.19,0,26,2.47,39,4.47,3.23.49,6.46,1,9.74,1.35C769.42,525.48,794,519,818.5,516c3.5-.43,7-.79,10.54-1,19,1,37-2,55-8,16-5,30,2,44,8,5,1,10,2,15.24,1H955c14,0,28,0,42.28-2.21" transform="translate(-68.88 -12.81)"/><path class="cls-1" d="M684.1,534.63h11.32c11.83-.25,23.57,1.36,35.38,2.94,3,.39,5.91.78,8.88,1.14C751,540,762,541,773,539c15.5-2,30.75-3.5,46-4.3,3-.16,6.09-.29,9.14-.39C860,535,893,531,925,534.61h37.68C973,536,983,534,993.31,534.11" transform="translate(-68.88 -12.81)"/><path class="cls-1" d="M686.37,553a189.15,189.15,0,0,1,20.57-1c2.28,0,4.53,0,6.7,0a290.71,290.71,0,0,0,29.61,2.1c3.29.07,6.59.11,9.94.11,30.43-1.11,61-2.84,91.79-2.44,3.42.05,6.85.12,10.27.22H991.07" transform="translate(-68.88 -12.81)"/><path class="cls-1" d="M991.38,386.45v67.33c0,2.81,0,5.66.06,8.53C999,493,997,524,991.46,555.74c-.07,3.55-.08,6.65-.08,9.2v8" transform="translate(-68.88 -12.81)"/><path class="cls-1" d="M690.23,575.06C702,572,714,573,725.5,572.77h46c10.24.12,20.36.18,30.47.18l10.12,0C847,575,880,568,913,557c19-6,34,13,53,15.57,3.16.19,6.07.2,8.7.2h16.67" transform="translate(-68.88 -12.81)"/><path class="cls-1" d="M1008.73,386.91v8c.27,12.08.27,23.08,0,35.24q0,3.76,0,7.71v8.05c0,2.73,0,5.51,0,8.32C1006,471,1021,481,1027,495a13.87,13.87,0,0,1,0,9c-6,21-21,38-18.27,61.4v8" transform="translate(-68.88 -12.81)"/><path class="cls-1" d="M1027.25,386.72c5.75,25.28-3.25,49.28,2,74a53,53,0,0,0,3.42,6.82c3.88,6.66,8.88,12.91,12.38,19.41,11,19-8,35-15,52a43.84,43.84,0,0,0-2.86,17c-.2,3.6-.21,6.7-.21,9.25v8" transform="translate(-68.88 -12.81)"/><path class="cls-1" d="M1048.89,385.27C1063,405,1051,427,1046,449c-1,6,2,11,4.44,16.08,1.06,2.38,2,4.77,2.94,7.17a94.55,94.55,0,0,1,4.18,14.56,76.45,76.45,0,0,1,1.34,9.82c3.1,18.37-7.9,33.37-13.77,49a33,33,0,0,0-.12,10.55v17.21" transform="translate(-68.88 -12.81)"/><path class="cls-1" d="M1076.55,376.37C1086,381,1089,391,1085,401c-10,23-23,45-21.8,70.24V480c-.2,28,3.8,57,.08,85.25-.08,5.09-.08,8-.08,8" transform="translate(-68.88 -12.81)"/><path class="cls-1" d="M1102.06,368.75C1111,376,1106,389,1103,398c-10,21-20,42-21.54,65.3v16.86c12.54,30.84,8.54,60.84.13,93.25" transform="translate(-68.88 -12.81)"/><path class="cls-1" d="M1117.83,369.62c.17,7.38.17,15.38-2.12,22.58-.89,3-1.88,6-2.92,8.93-6.25,17.62-14.37,34.13-13.1,52.9a25.47,25.47,0,0,0-.55,9.15c1.78,14,15.53,22.49,18.86,35.82,7,25-14,48-18,74.14" transform="translate(-68.88 -12.81)"/><path class="cls-1" d="M1117.73,386.91c.27,10.09.27,21.09,0,31.35v11.9c0,2.5,0,5.08,0,7.71C1116,455,1127,468,1142,478c3,2,3,8,2,12-9,28-22,54-26.18,83.36" transform="translate(-68.88 -12.81)"/><path class="cls-1" d="M1136.14,389.6C1138,408,1131,429,1142,445.33a78.46,78.46,0,0,0,4.67,6.47c3.34,4.2,7,8.2,10.34,12.2a16.13,16.13,0,0,1,3,9c-5,32-24,59-24,92.15-.07,5.15-.07,8.07-.07,8.07" transform="translate(-68.88 -12.81)"/><path class="cls-1" d="M1154.92,394.33c1.08,18.67-.92,36.67-.64,55.72q0,3.38,0,6.83V573.41" transform="translate(-68.88 -12.81)"/><path class="cls-1" d="M1173.34,394.86c.66,20.14-.34,41.14-.87,61v88.24c-.47,9.92,1.53,18.92.13,29.14" transform="translate(-68.88 -12.81)"/><path class="cls-1" d="M1193.34,390.43c-3.34,18.57-2.34,38.57-2.8,58v14.34c.46,27.24.46,55.24.67,82,.26,2.41.56,4.81.88,7.22,1,7.2,2,14.4,2.07,21.81" transform="translate(-68.88 -12.81)"/><path class="cls-1" d="M1216.58,385.45c-8.58,17.55-17.58,36.55-18,57a61.57,61.57,0,0,0,.79,8.28c2.6,16.37,10.77,31.8,14.19,48.52.36,3.27.58,6.52.64,9.79A73.61,73.61,0,0,1,1212,529c-3,8,1,17,4.69,24.23,1.29,3.14,2.63,6.27,3.9,9.42s2.5,6.3,3.51,9.5" transform="translate(-68.88 -12.81)"/><path class="cls-1" d="M1236.52,385.51c-3.52,4.49-5.52,9.49-8.38,14.38-1.31,2.25-2.58,4.48-3.77,6.74a76.26,76.26,0,0,0-3.27,7c-1.6,3-3.22,5.94-4.76,8.87C1211.75,431.25,1208,440,1211,450c7,22,36,37,28.24,62-.66,2.44-1.41,4.85-2.09,7.28-1.37,4.85-2.48,9.74-2.15,14.74,1,6,3,13,6.47,18.69,1.44,2.39,3,4.81,4.53,7.31a10.21,10.21,0,0,1,2.74,8.07" transform="translate(-68.88 -12.81)"/><path class="cls-1" d="M1251.7,385.93c-3.7,6.07-4.7,14.07-6.85,20.72a29.14,29.14,0,0,1-2.8,6.63c-1.24,2.35-2.69,4.61-4.15,6.82-4.4,6.65-8.9,12.9-7.9,19.9,3,26,31,46,26.55,75.83-.21,3.24-.54,6.53-1,9.89s-.95,6.78-1.58,10.28c-1,6,2,11,4.49,16.81a32.94,32.94,0,0,1,2.72,6.73,23,23,0,0,1,.76,7.5" transform="translate(-68.88 -12.81)"/><path class="cls-1" d="M1265.83,386.85c-.83,6.15-3.83,12.15-2.49,19.08a44.12,44.12,0,0,1,.13,6.88c-.64,11.25-5.64,21.52-6.47,33.19-2,18,11,32,14,49,1,5,0,9-.13,14-.2,2.33-.48,4.67-.8,7-.63,4.67-1.4,9.33-2.07,14-1,7,0,13,1.78,19.77.74,3,1.42,6,1.87,9a48.82,48.82,0,0,1,.54,9.33" transform="translate(-68.88 -12.81)"/><path class="cls-1" d="M1282.22,386.71c-.22,6.29-.22,11.29-.69,17.21-.06,3.56-.07,7.56-.07,11.93v6.82c-.46,25.33-.46,49.33,0,74.64,0,2.89,0,5.75,0,8.57v67.34" transform="translate(-68.88 -12.81)"/><path class="cls-1" d="M991.3,404.34h19.61C1040,407,1068,396,1094,384c8.5-3.5,14.75-1.25,20.38,2.88a52.69,52.69,0,0,1,5.48,4.75C1144,422,1184,410,1215.63,404.1h17.65l8.83,0c18.89-.13,36.89-.13,56.24.21" transform="translate(-68.88 -12.81)"/><path class="cls-1" d="M991.11,422.92h19.63C1040,427,1066,410,1095,412c7,.5,13.5,3.75,20.1,6.61,2.2,1,4.41,1.87,6.65,2.63C1152,431,1183,425,1213.31,418.08c2.91-.23,5.83-.37,8.78-.4s5.91.07,8.91.32c17,2,33,6,50.15,4.92h17" transform="translate(-68.88 -12.81)"/><path class="cls-1" d="M991.27,441.59h19.57c33.16.41,66.16-4.59,98.94-.14,2.77.11,5.65.14,8.56.14h16a168.09,168.09,0,0,0,73.78-9.29A68.17,68.17,0,0,1,1218,431c25,0,50,11,76.06,10.59h4.26" transform="translate(-68.88 -12.81)"/><path class="cls-1" d="M991.08,460.16h41.51c17.41-.16,34.41-.16,51.53,0h76.21c3.27,0,6.52,0,9.73,0A33.2,33.2,0,0,0,1187,458c15-4,29-16,46-11,22,6,43,13,65.11,13.15" transform="translate(-68.88 -12.81)"/><path class="cls-1" d="M992.48,478.69c35.52-5.69,72.52-.69,108.6.36,2.83,0,5.7,0,8.58,0h70.48C1194,480,1208,475,1222,470c24-10,50,6,76,8.27" transform="translate(-68.88 -12.81)"/><path class="cls-1" d="M996.37,495.64C1015,493,1033,489,1052,492l9.51,1.49C1093,502,1119,478,1150,472a13.89,13.89,0,0,1,11,2c6.5,6.5,12.5,13.25,19.36,18a40.89,40.89,0,0,0,7.68,3.93,58,58,0,0,0,15.73,2.22,65.36,65.36,0,0,0,7.81-.4C1237,488,1264,483,1290.14,494c2.63.69,5.29,1.4,8,2.07" transform="translate(-68.88 -12.81)"/><path class="cls-1" d="M997.11,514.13c14.07-2.61,28.23-5.82,42.39-5.08a68.22,68.22,0,0,1,8.5.95c31,11,58-9,87-19,5-2,11-3,13,0,9.17,12.5,17.64,25,32.33,26.11a37,37,0,0,0,10.21-.81c14,.44,27.5-1,41-2.8q4.05-.56,8.11-1.16c10.35.66,20.35-5.34,30.81-2.58,2.35.32,4.67.78,7,1.29,6.94,1.56,13.82,3.67,21.08,4.39" transform="translate(-68.88 -12.81)"/><path class="cls-1" d="M993.16,534.4c12.37-.33,24.84-2.47,37.92-2.6,2.61,0,5.25,0,7.92.2,31,8,59-10,89-11,14-1,25,16,40.86,13.88h7.51q5.09.15,10.15.16c3.49,0,7,0,10.5,0,34,0,67-8,101.11-.18" transform="translate(-68.88 -12.81)"/><path class="cls-1" d="M991,552.27c15-.22,30.71-.26,45.76-.11l8.94.11c35.32.73,70.32-8.27,105.61,0,2.46,0,4.93,0,7.4,0,15.26-1.07,31,.84,46.23.35,3.06-.1,6.09-.3,9.11-.63,25-2,49-5,73.51-1.85,3.5.46,7,1,10.51,1.79" transform="translate(-68.88 -12.81)"/><path class="cls-1" d="M1298.36,386.72a139.19,139.19,0,0,0,0,17.21V573.22" transform="translate(-68.88 -12.81)"/><path class="cls-1" d="M990.92,573h69.4c21.68,0,44.68,0,66.62,0h38.73c18.33,0,36.33,3,54.33-1,27-5,53-7,78.57.55" transform="translate(-68.88 -12.81)"/><path class="cls-1" d="M701.9,572.82V602c4.1,33,7.1,65,0,98.35v59" transform="translate(-68.88 -12.81)"/><path class="cls-1" d="M720.09,572.64v17.21c0,3.55,0,7.56.1,11.93C720,624,734,641,740,662c1,4-1,8-3,11-7,8-15,16-16.61,27.18-.18,2.68-.21,5.37-.3,8v51" transform="translate(-68.88 -12.81)"/><path class="cls-1" d="M738.17,572.82V602C738,626,755,644,766,665a12.91,12.91,0,0,1,1.5,11.5A16.48,16.48,0,0,1,760,685c-12,6-25,16-21.83,31.07v43.26" transform="translate(-68.88 -12.81)"/><path class="cls-1" d="M756.37,572.63v36c.55,18.73,12.1,34.09,21,50.37,1.28,2.32,2.5,4.67,3.64,7,11,18-12,28-20.39,41.79a29.33,29.33,0,0,0-3.19,7.07,27.53,27.53,0,0,0-1.07,8.32v36" transform="translate(-68.88 -12.81)"/><path class="cls-1" d="M774.63,572.82s0,2.92,0,8v79.77l0,7.65c.35,22.74.35,44.74,0,68.2,0,3.49,0,6.66,0,9.46v13.41" transform="translate(-68.88 -12.81)"/><path class="cls-1" d="M793,572.61s-.15,2.93-.18,8v68.92c0,2.33,0,4.68.08,7C796,690,800,721,792.82,753.76v5.38" transform="translate(-68.88 -12.81)"/><path class="cls-1" d="M811,572.8s-.1,2.93-.1,8C811,599,811,618,810.89,636v13.5c.05,2.24.08,4.5.14,6.79C810,677,821,694,827,713c5,13-6,23-13,34-2,4-2,8-3,12.34" transform="translate(-68.88 -12.81)"/><path class="cls-1" d="M829.31,572.55c5,23.14,1.77,46.71.28,70.2-.21,3.35-.39,6.71-.5,10.06C828,659,828,666,831,672c13,30,25,61-.59,87.72" transform="translate(-68.88 -12.81)"/><path class="cls-1" d="M850,572.18C853,582,863,590,862,601c-2.62,19.25-14.44,36.2-15,56.27a49.86,49.86,0,0,0,.49,8.81C853,698,869,730,849,760.21" transform="translate(-68.88 -12.81)"/><path class="cls-1" d="M872.45,570.87C887,576,901,588,891,605c-13,19-29,37-25.37,60.89v93.25" transform="translate(-68.88 -12.81)"/><path class="cls-1" d="M894.46,562.57C899,564,904,565,907,570c11,24-8,46-20,66-2,4-2,9-3.17,12.64-.11,2.9-.11,5.79-.12,8.7v102" transform="translate(-68.88 -12.81)"/><path class="cls-1" d="M911.65,556c22.35,29-6.65,62-9.75,92.47v38.22c.1,9.29.1,18.29,0,27.66v44.77" transform="translate(-68.88 -12.81)"/><path class="cls-1" d="M920.16,572.82v84.52c0,2.91.05,5.82.09,8.74,1.75,24.92.75,50.92-.08,76,0,3.55,0,6.64,0,9.19v8" transform="translate(-68.88 -12.81)"/><path class="cls-1" d="M938.35,572.63V640c0,2.81,0,5.65,0,8.52C947,683,945,716,938.35,751.12v8" transform="translate(-68.88 -12.81)"/><path class="cls-1" d="M956.43,572.82V590c0,3.55.05,7.56.13,11.93,1.44,22-2.56,46,5.83,67.31.8,2.42,1.62,4.85,2.41,7.3s1.53,4.93,2.2,7.43c5,24-10,44-10.51,67.3-.06,5.11-.06,8-.06,8" transform="translate(-68.88 -12.81)"/><path class="cls-1" d="M974.62,572.63v6.78C975,584,974,589,976,594c7,23,2,46,3,69,1,4,2,9,2.6,13.07.57,3,1.07,5.93,1.4,8.93,1,16-3,31-7,47-1,6-1,13-1.38,19.12v8" transform="translate(-68.88 -12.81)"/><path class="cls-1" d="M689.86,592.14C702,591,714,589,726,590.26h75.69c2.57,0,5.15,0,7.76,0C844,590,878,587,910,570c4-2,9-2,14,0,10,4.67,18.67,12.44,28.31,16.89a38.84,38.84,0,0,0,7.46,2.61c11.23,1.5,22.23-.5,33.46.64" transform="translate(-68.88 -12.81)"/><path class="cls-1" d="M686.43,609.4c2.14-.1,4.37-.17,6.66-.23s4.63-.11,7-.14c17.92,0,36.92,0,54.78-.19h42.4l7.61,0C840,609,873,601,908,595c9-1.5,17,2,25.11,5.84,2.7,1.28,5.42,2.6,8.18,3.78C961,612,983,608,1003.7,606.9" transform="translate(-68.88 -12.81)"/><path class="cls-1" d="M684.56,627.5C720,629,756,631,791,627.52c2.61,0,5.24,0,7.88,0,47.52-2.32,94-5.07,141.21-1,3.68.31,7.36.66,11.13,1,19.83-.5,40.83-.5,61.14-3.57" transform="translate(-68.88 -12.81)"/><path class="cls-1" d="M687.29,647.4C715,645,742,660,770,656c13.33-2,25.78-6.67,38.46-8.94a81.08,81.08,0,0,1,9.58-1.17c30,.11,60,.11,89.86.19h30.61c2.92,0,5.86,0,8.83,0,17.66,0,36.66,0,54.69-1.44" transform="translate(-68.88 -12.81)"/><path class="cls-1" d="M691.9,668.45c23.71-3,45.82,4.26,69.06,8.81,3.33.65,6.68,1.24,10.07,1.74,3,0,6,1,9,0,22-8,44-17,68.43-14h74.16c8.78,0,17.64-.84,26.48-1.63,3-.27,5.91-.53,8.87-.75C970,661,983,661,994.62,663.77" transform="translate(-68.88 -12.81)"/><path class="cls-1" d="M690.94,687.09C696,686,700,684,705,684c16.88,0,33.36,4.3,49.94,6.54,3.34.45,6.68.82,10,1.05,31,1.41,61,.41,92-6.59,7-2,15-1,22.19-1.43h24.44C924,684,943,680,963,677c11-1,21,2,31.51,3.36" transform="translate(-68.88 -12.81)"/><path class="cls-1" d="M687.6,703.92C701,702,713,702,725.93,702.23h32C784,701,809,709,835,714c5,1,10,0,14-1,15-6,29-12,45.32-10.77h7.31C924,704,945,696,967,694c10,0,19,1,28.16,4.71" transform="translate(-68.88 -12.81)"/><path class="cls-1" d="M684.23,720.8h77c2.65,0,5.31,0,8,0C794,720,817,731,842,731c19,0,36-12,56.28-10.18,2.72,0,5.43,0,8.15,0C935,722,964,712,992.87,719.19" transform="translate(-68.88 -12.81)"/><path class="cls-1" d="M684.06,738.19h93.07c40.87,4.81,80.87,6.81,121,0,2.71,0,5.42,0,8.09,0,27.8-.19,56.8-.19,84.93,0" transform="translate(-68.88 -12.81)"/><path class="cls-1" d="M991.51,572.64s0,2.91.16,8C991,595,1003,605,1011,616c1,2,2,5,1,8-6,19-19,36-17.69,56.79.1,3.4.17,6.8.19,10.2a365.57,365.57,0,0,1-3,50.94v17.21" transform="translate(-68.88 -12.81)"/><line class="cls-1" x1="615.2" y1="746.14" x2="922.63" y2="746.14"/><path class="cls-1" d="M1008.87,573.09a61,61,0,0,0,.77,7.86c3.36,15,21.36,19,26.36,34a16.72,16.72,0,0,1-1,12c-8,17-24,29-25.85,48.06-.21,2.92-.23,5.81-.28,8.68.13,23.26.13,46.26,0,69.65,0,4,0,6.21,0,6.21" transform="translate(-68.88 -12.81)"/><path class="cls-1" d="M1027.16,572.89C1029,587,1040,596,1047,608c4,8,3,17-1,25-5.83,11.67-15.14,21.94-18,34.24a32.54,32.54,0,0,0-.89,7.64c3.93,28.12,8.93,56.12.2,84.53" transform="translate(-68.88 -12.81)"/><path class="cls-1" d="M1045.14,573.09v93.25C1044,680,1052,692,1058,704c10,18-6,38-11.61,55.59" transform="translate(-68.88 -12.81)"/><path class="cls-1" d="M1063.34,572.9v22.87c.66,24.23.66,49.23-.55,73.53.21,4,1.21,7.7,4.21,10.7a48.88,48.88,0,0,1,6.64,9.55,42.9,42.9,0,0,1,3.73,9.82c.63,6.63,2.63,12.63.62,20.08a85.29,85.29,0,0,1-2.19,10.06c-2.78,10-7.12,19.85-10.91,29.07" transform="translate(-68.88 -12.81)"/><path class="cls-1" d="M1081.75,573.09s-.1,2.24-.16,6.21v7.2C1083,612,1092,636,1083,662c-3,7,0,14,2.07,21.45a59.17,59.17,0,0,1,4.07,9.46c5.32,16.05,3.47,33.32-3.51,49.47-.82,2.68-1.6,5.36-2.27,8.06a76,76,0,0,0-1.61,8.22" transform="translate(-68.88 -12.81)"/><path class="cls-1" d="M1100.23,572.81s-.26,2.62-.43,7.18a21.78,21.78,0,0,0,.38,8.55c3.26,13.57,18,24.13,18.82,37.46,1,22-24,37-18.25,61.23q.24,5.31.42,10.65c.61,17.79.65,35.77-1.32,53.53-.06,5.08-.06,8-.06,8" transform="translate(-68.88 -12.81)"/><path class="cls-1" d="M1118,573s-.1,2.6,0,7.15a16.52,16.52,0,0,0,1.65,7.36c5.21,10.7,21.18,14.45,25.35,24.45,11,23-21,37-26,61,0,2,0,5,1,6.55.59,2.14,1.29,4.26,2,6.37,2.26,6.33,5,12.58,7,19.08,8,19-12,35-11.1,54.6" transform="translate(-68.88 -12.81)"/><path class="cls-1" d="M1136.26,572.76C1135,590,1155,592,1160,605c10,21-12,39-20,58-1,4-2,7-2,11a24.39,24.39,0,0,0,3.36,6.78c5.77,8.46,15.33,14.91,22.66,22.24,3,4,2,10-1,15-10,14-24,24-26.75,41.41" transform="translate(-68.88 -12.81)"/><path class="cls-1" d="M1154.41,573.09v84.52c0,2.91,0,5.82.11,8.73,2.07,16.38,22.55,18.42,31.64,27.9A15,15,0,0,1,1190,701c1,6-1,11-3.78,15.85a53,53,0,0,1-6,6.9C1173.5,730.5,1165,737,1160,745c-3,5-5,9-5.44,14.59" transform="translate(-68.88 -12.81)"/><path class="cls-1" d="M1172.74,572.9c.26,8.1.26,15.1-.13,22.87.06,3,.12,6,.16,9,.22,14.9.16,29.17-.17,44v8.66c-1.35,8.47,1.74,13.62,6.77,17.49a40,40,0,0,0,5.56,3.49C1192,683,1204,682,1206,691c3,13-6,24-14.11,33.5a49.3,49.3,0,0,0-3.93,5c-1.76,2.2-3.46,4.43-5.06,6.73-4.78,6.89-8.61,14.34-10.23,23.12" transform="translate(-68.88 -12.81)"/><path class="cls-1" d="M1194.35,573.5c.65,12.5-4.35,26.5-3.59,39.14-.07,3.85-.08,7.89-.08,12.07v75.87c.32,10.42.32,19.42,0,29.87V759.6" transform="translate(-68.88 -12.81)"/><path class="cls-1" d="M1224.33,571.79C1221,591,1203,605,1203,625.05c-.3,3.09-.54,6.18-.69,9.28-.62,12.39.1,24.87,3.7,37.67,2,6,1,12,1.39,17.89,0,3.39,0,6.79.09,10.19.26,17,1,34.11,1.49,51.3-.09,5.11-.1,8-.1,8" transform="translate(-68.88 -12.81)"/><path class="cls-1" d="M1248.86,567.72C1248,591,1223,601,1214.94,621.26A27,27,0,0,0,1214,630c0,19,10,37,10,56.21-.25,3.13-.5,6.24-.67,9.37s-.3,6.25-.3,9.42c-1,15,6,29,6,44-1,4,0,8-1.73,10.54" transform="translate(-68.88 -12.81)"/><path class="cls-1" d="M1262.05,566.71c2,24.29-21,37.29-30,57.26a33.56,33.56,0,0,0-1.12,7.95c-.3,13.08,6.23,25.58,12.06,38.08,4,8,0,16-.12,23.59-.41,2.58-.76,5.15-1,7.72A112.87,112.87,0,0,0,1244,740c2,6,2,13,1.18,18.89" transform="translate(-68.88 -12.81)"/><path class="cls-1" d="M1272.27,567.81C1272,587,1265,604,1259.38,621.37c-.44,2.32-.79,4.6-1,6.86A67.06,67.06,0,0,0,1258,635c-2,20,10,38,5.9,58.48-.29,3.07-.61,6.13-.94,9.19a259.8,259.8,0,0,0-2,27.33c1,10,2,19,1.88,29.19" transform="translate(-68.88 -12.81)"/><path class="cls-1" d="M1281.6,572.9v22.87c0,3.48,0,7.28,0,11.32C1280,630,1280,653,1282.93,675.92q-.36,5.26-.68,10.48a652,652,0,0,0-.81,73" transform="translate(-68.88 -12.81)"/><path class="cls-1" d="M993.23,590.4c22.94-1,46.48-1.27,69.78-.84q5,.09,10,.23c29.72,2,58.61-2.67,87.42-4.35,3.2-.19,6.4-.34,9.62-.44,28,2,56,7,85,2,15-3,29,4,43.51,3.46" transform="translate(-68.88 -12.81)"/><path class="cls-1" d="M1003.77,607.15c16.11-3.08,32.17-2.36,48.33-1,3.23.27,6.47.56,9.78.85,33.41,5.39,64.29-3.79,96.37-7.87,3.57-.45,7.15-.84,10.75-1.14,40,9,81,8,121.33,11.11h8" transform="translate(-68.88 -12.81)"/><path class="cls-1" d="M1012.13,624.22c8.9-.91,17.88-2.83,27.29-2.47A51.91,51.91,0,0,1,1049,623c34,6,69,4,102-8a30.81,30.81,0,0,1,10.62-1.89,39.25,39.25,0,0,1,10,1.43C1180,617,1188,621,1196,622a38.37,38.37,0,0,0,7.35,0c15.65-4,30.65-1,46.91,2.39,2.76.52,5.52,1,8.28,1.48,11,1.85,22.1,3,33.74,1.92h6.18" transform="translate(-68.88 -12.81)"/><path class="cls-1" d="M1001.61,644.9c15.2-2.45,30.54-1.67,45.78-.49,3,.23,6.11.47,9.23.69,36,2.07,71.27-4.48,106.6-3.89,3.54.06,7.07.18,10.57.33C1189,640,1203,640,1217,639c25-1,50,9,74.65,7.31,4.3,0,6.62,0,6.62,0" transform="translate(-68.88 -12.81)"/><path class="cls-1" d="M994.5,664c19.69,2.62,39.76.65,59.21,1,2.78,0,5.54.14,8.29.29,38.5-.23,76.16-.25,114.41-1.16,3.48-.08,7-.18,10.4-.4,32.19-9.69,64.19.31,96.42,1.53,4.86,0,8.66,0,11.26,0h4" transform="translate(-68.88 -12.81)"/><path class="cls-1" d="M994.47,680.6c4.27.7,8.65,1.55,13.08,2.2,2.22.33,4.45.61,6.69.79,18.38.71,36.57-.69,54.81-1.54,3.65-.17,7.3-.32,11-.42,10,1.37,19-.63,29.45.91,3.27.09,6.53.16,9.8.22,16.33.29,32.7.2,49.32-.87,3.32-.21,6.66-.46,10-.76q4.82-1.51,9.58-2.72c3.19-.8,6.36-1.52,9.49-2.19C1223,669,1248,673,1272.84,678c3.17.69,6.32,1.42,9.47,2.22s6.28,1.62,9.42,2.52c2.22.28,4.45.56,6.68.82" transform="translate(-68.88 -12.81)"/><path class="cls-1" d="M995.09,699a39.44,39.44,0,0,0,6.15,1.75c25.16,5.49,49-3,73.3-4.56,3.48-.21,7-.29,10.51-.16,27.74,7.52,55.17,4.66,82.46,1.11l9.09-1.2a153.47,153.47,0,0,1,20.73-7.3q5.19-1.41,10.37-2.42a130.83,130.83,0,0,1,51.34.38q5.1,1.08,10.12,2.57a144,144,0,0,1,29.65,12.61" transform="translate(-68.88 -12.81)"/><path class="cls-1" d="M992.76,719.49c23.84,4.82,46.72.06,70.16-4.55,3.35-.66,6.71-1.32,10.08-1.94,30-2,58,12,89,7,3-.5,5.94-1.08,8.85-1.7s5.78-1.26,8.63-1.89C1196,715,1209,703,1225,699c27-6,48,15,73.15,21.42" transform="translate(-68.88 -12.81)"/><path class="cls-1" d="M991.05,738.43l5.15,0h6.2C1025,738,1047,738,1070,734a61.73,61.73,0,0,1,8.91-.81C1095,734,1112,738,1128,738c18.5,0,37-.75,55.46-1.07,3.69-.06,7.38-.11,11.1-.12C1230,726,1263,729,1297.87,738.41" transform="translate(-68.88 -12.81)"/><path class="cls-1" d="M1298.49,572.9V683.55c0,2.87,0,5.71,0,8.53-.47,19.92-.47,38.92,0,59.31,0,5.11,0,8,0,8" transform="translate(-68.88 -12.81)"/><path class="cls-1" d="M991.05,759.22h19.6c28.23-.15,55.87-.64,83.57-.59,3.46,0,6.92,0,10.39,0,29.39.32,59.39.32,88.81.54h7.79l8.56-.07,8.57,0c24.66-.1,50.66-.1,75.22.12h4.93" transform="translate(-68.88 -12.81)"/></svg>